<svg xmlns="http://www.w3.org/2000/svg" width="256" height="153" viewBox="0 0 256 153" fill="none">
  <g clip-path="url(#clip0_426_315)">
    <path d="M25.8397 140.331C26.9025 140.693 28.0436 140.783 29.153 140.594C30.2625 140.405 31.3029 139.942 32.1741 139.251C34.3927 137.448 35.0884 134.479 35.6542 131.73L37.3283 123.596L33.8235 125.932C31.3029 127.612 28.7256 129.346 26.9805 131.779C25.2354 134.213 24.4741 137.535 25.8758 140.168" fill="#E6E6E6"/>
    <path d="M26.3809 150.744C25.9398 147.633 25.4859 144.482 25.7961 141.337C26.0709 138.545 26.9511 135.818 28.743 133.581C29.6941 132.396 30.8515 131.381 32.163 130.581C32.5049 130.372 32.8197 130.896 32.4792 131.104C30.2099 132.493 28.4546 134.543 27.4664 136.959C26.375 139.646 26.1998 142.575 26.3878 145.429C26.5014 147.155 26.7429 148.87 26.9854 150.583C27.0045 150.66 26.9926 150.742 26.9519 150.811C26.9113 150.88 26.845 150.932 26.7665 150.956C26.6864 150.977 26.601 150.966 26.5288 150.926C26.4567 150.887 26.4036 150.821 26.3811 150.744L26.3809 150.744Z" fill="#F2F2F2"/>
    <path d="M29.5562 145.752C30.0119 146.423 30.6384 146.969 31.3753 147.337C32.1123 147.706 32.9348 147.884 33.7636 147.855C35.8941 147.757 37.6695 146.318 39.2675 144.952L43.9952 140.911L40.8664 140.766C38.6162 140.662 36.308 140.564 34.1648 141.237C32.0216 141.909 30.0451 143.525 29.6533 145.672" fill="#E6E6E6"/>
    <path d="M25.134 152.533C27.2578 148.895 29.7209 144.852 34.1226 143.56C35.3464 143.202 36.6296 143.074 37.9032 143.182C38.3046 143.216 38.2044 143.815 37.8037 143.781C35.6689 143.61 33.5382 144.156 31.7704 145.327C30.0691 146.447 28.7445 148.006 27.6235 149.658C26.9367 150.671 26.3216 151.726 25.7065 152.78C25.5099 153.117 24.9351 152.873 25.134 152.533Z" fill="#F2F2F2"/>
    <path d="M238.624 144.662C238.006 145.197 237.256 145.57 236.447 145.744C235.637 145.918 234.795 145.886 234.001 145.654C231.967 145.032 230.63 143.202 229.446 141.485L225.942 136.409L229.006 137.043C231.209 137.499 233.466 137.975 235.36 139.156C237.255 140.336 238.739 142.387 238.551 144.56" fill="#E6E6E6"/>
    <path d="M241.109 152.311C240.016 148.269 238.702 143.751 234.788 141.413C233.699 140.764 232.492 140.322 231.233 140.112C230.836 140.045 230.774 140.649 231.171 140.716C233.28 141.078 235.196 142.133 236.596 143.702C237.944 145.207 238.814 147.041 239.461 148.916C239.858 150.065 240.174 151.237 240.49 152.408C240.591 152.782 241.211 152.689 241.109 152.311Z" fill="#F2F2F2"/>
    <path d="M198.071 93.1172H126.465C125.894 93.1166 125.345 92.8964 124.941 92.505C124.537 92.1136 124.309 91.5829 124.309 91.0294V67.6461C124.309 67.0926 124.537 66.562 124.941 66.1706C125.345 65.7792 125.894 65.559 126.465 65.5583H198.071C198.642 65.559 199.191 65.7792 199.595 66.1706C199.999 66.562 200.227 67.0926 200.227 67.6461V91.0294C200.227 91.583 199.999 92.1136 199.595 92.505C199.191 92.8964 198.642 93.1166 198.071 93.1172Z" fill="#F1F1F1"/>
    <path d="M154.504 71.8218H135.524V73.9096H154.504V71.8218Z" fill="#009694"/>
    <path d="M179.522 74.3271C180.237 74.3271 180.816 73.7663 180.816 73.0745C180.816 72.3826 180.237 71.8218 179.522 71.8218C178.807 71.8218 178.228 72.3826 178.228 73.0745C178.228 73.7663 178.807 74.3271 179.522 74.3271Z" fill="#009694"/>
    <path d="M183.836 74.3271C184.55 74.3271 185.13 73.7663 185.13 73.0745C185.13 72.3826 184.55 71.8218 183.836 71.8218C183.121 71.8218 182.542 72.3826 182.542 73.0745C182.542 73.7663 183.121 74.3271 183.836 74.3271Z" fill="#009694"/>
    <path d="M188.15 74.3271C188.864 74.3271 189.444 73.7663 189.444 73.0745C189.444 72.3826 188.864 71.8218 188.15 71.8218C187.435 71.8218 186.855 72.3826 186.855 73.0745C186.855 73.7663 187.435 74.3271 188.15 74.3271Z" fill="#009694"/>
    <path d="M198.071 122.764H126.465C125.894 122.763 125.345 122.543 124.941 122.152C124.537 121.76 124.309 121.23 124.309 120.676V97.2929C124.309 96.7393 124.537 96.2087 124.941 95.8173C125.345 95.4259 125.894 95.2057 126.465 95.2051H198.071C198.642 95.2057 199.191 95.4259 199.595 95.8173C199.999 96.2087 200.227 96.7393 200.227 97.2929V120.676C200.227 121.23 199.999 121.76 199.595 122.152C199.191 122.543 198.642 122.763 198.071 122.764Z" fill="#F1F1F1"/>
    <path d="M154.504 101.469H135.524V103.556H154.504V101.469Z" fill="#009694"/>
    <path d="M179.522 103.974C180.237 103.974 180.816 103.413 180.816 102.721C180.816 102.029 180.237 101.469 179.522 101.469C178.807 101.469 178.228 102.029 178.228 102.721C178.228 103.413 178.807 103.974 179.522 103.974Z" fill="#009694"/>
    <path d="M183.836 103.974C184.55 103.974 185.13 103.413 185.13 102.721C185.13 102.029 184.55 101.469 183.836 101.469C183.121 101.469 182.542 102.029 182.542 102.721C182.542 103.413 183.121 103.974 183.836 103.974Z" fill="#009694"/>
    <path d="M188.15 103.974C188.864 103.974 189.444 103.413 189.444 102.721C189.444 102.029 188.864 101.469 188.15 101.469C187.435 101.469 186.855 102.029 186.855 102.721C186.855 103.413 187.435 103.974 188.15 103.974Z" fill="#009694"/>
    <path d="M198.071 152.411H126.465C125.894 152.41 125.345 152.19 124.941 151.798C124.537 151.407 124.309 150.876 124.309 150.323V126.94C124.309 126.386 124.537 125.855 124.941 125.464C125.345 125.073 125.894 124.852 126.465 124.852H198.071C198.642 124.852 199.191 125.073 199.595 125.464C199.999 125.855 200.227 126.386 200.227 126.94V150.323C200.227 150.876 199.999 151.407 199.595 151.798C199.191 152.19 198.642 152.41 198.071 152.411Z" fill="#F1F1F1"/>
    <path d="M154.504 131.115H135.524V133.203H154.504V131.115Z" fill="#009694"/>
    <path d="M179.522 133.621C180.237 133.621 180.816 133.06 180.816 132.368C180.816 131.676 180.237 131.115 179.522 131.115C178.807 131.115 178.228 131.676 178.228 132.368C178.228 133.06 178.807 133.621 179.522 133.621Z" fill="#009694"/>
    <path d="M183.836 133.621C184.55 133.621 185.13 133.06 185.13 132.368C185.13 131.676 184.55 131.115 183.836 131.115C183.121 131.115 182.542 131.676 182.542 132.368C182.542 133.06 183.121 133.621 183.836 133.621Z" fill="#009694"/>
    <path d="M188.15 133.621C188.864 133.621 189.444 133.06 189.444 132.368C189.444 131.676 188.864 131.115 188.15 131.115C187.435 131.115 186.855 131.676 186.855 132.368C186.855 133.06 187.435 133.621 188.15 133.621Z" fill="#009694"/>
    <path d="M171.076 42.7249L170.997 42.6682L170.995 42.6669C170.893 42.5934 170.777 42.5402 170.654 42.5102C170.53 42.4802 170.402 42.474 170.276 42.492C170.15 42.51 170.029 42.5518 169.92 42.6151C169.811 42.6783 169.716 42.7617 169.64 42.8606L153.522 63.8671H151.749V63.4638C151.749 63.3643 151.708 63.2689 151.636 63.1985C151.563 63.1282 151.465 63.0887 151.362 63.0887H150.304C150.201 63.0887 150.102 63.1282 150.03 63.1985C149.957 63.2689 149.916 63.3643 149.916 63.4638V63.8671H149.304V63.4638C149.304 63.3643 149.263 63.2689 149.19 63.1985C149.118 63.1282 149.019 63.0887 148.916 63.0887H147.858C147.756 63.0887 147.657 63.1282 147.584 63.1985C147.512 63.2689 147.471 63.3643 147.471 63.4638V63.8671H146.861V63.4638C146.861 63.3643 146.82 63.2689 146.747 63.1985C146.674 63.1282 146.576 63.0887 146.473 63.0887H145.415C145.312 63.0887 145.214 63.1282 145.141 63.1985C145.068 63.2689 145.028 63.3643 145.028 63.4638V63.8671H144.415V63.4638C144.415 63.3643 144.374 63.2689 144.302 63.1985C144.229 63.1282 144.131 63.0887 144.028 63.0887H142.97C142.867 63.0887 142.768 63.1282 142.696 63.1985C142.623 63.2689 142.582 63.3643 142.582 63.4638V63.8671H141.972V63.4638C141.972 63.3643 141.931 63.2689 141.858 63.1985C141.786 63.1282 141.687 63.0887 141.584 63.0887H140.526C140.476 63.0886 140.425 63.0983 140.378 63.1172C140.331 63.136 140.288 63.1637 140.252 63.1985C140.216 63.2333 140.188 63.2747 140.168 63.3202C140.149 63.3657 140.139 63.4145 140.139 63.4638V63.8671H139.527V63.4638C139.527 63.3643 139.486 63.2689 139.413 63.1985C139.34 63.1282 139.242 63.0887 139.139 63.0887H138.081C137.978 63.0887 137.88 63.1282 137.807 63.1985C137.734 63.2689 137.694 63.3643 137.694 63.4638V63.8671H137.081V63.4638C137.081 63.3643 137.04 63.2689 136.968 63.1985C136.895 63.1282 136.797 63.0887 136.694 63.0887H135.636C135.533 63.0887 135.434 63.1282 135.362 63.1985C135.289 63.2689 135.248 63.3643 135.248 63.4638V63.8671H134.638V63.4638C134.638 63.3643 134.597 63.2689 134.524 63.1985C134.452 63.1282 134.353 63.0887 134.25 63.0887H133.192C133.09 63.0887 132.991 63.1282 132.918 63.1985C132.846 63.2689 132.805 63.3643 132.805 63.4638V63.8671H132.193V63.4638C132.193 63.3643 132.152 63.2689 132.079 63.1985C132.006 63.1282 131.908 63.0887 131.805 63.0887H130.747C130.644 63.0887 130.546 63.1282 130.473 63.1985C130.4 63.2689 130.36 63.3643 130.36 63.4638V63.8671H129.749V63.4638C129.749 63.3643 129.708 63.2689 129.636 63.1985C129.563 63.1282 129.465 63.0887 129.362 63.0887H128.304C128.201 63.0887 128.102 63.1282 128.03 63.1985C127.957 63.2689 127.916 63.3643 127.916 63.4638V63.8671H127.149C127.022 63.867 126.896 63.8913 126.778 63.9384C126.661 63.9856 126.554 64.0546 126.464 64.1417C126.374 64.2288 126.303 64.3322 126.254 64.446C126.205 64.5598 126.18 64.6817 126.18 64.8049V65.6996C126.18 65.8227 126.205 65.9447 126.254 66.0585C126.303 66.1723 126.374 66.2756 126.464 66.3627C126.554 66.4498 126.661 66.5189 126.778 66.566C126.896 66.6131 127.022 66.6374 127.149 66.6374H153.362C153.694 66.6374 154.015 66.5266 154.273 66.3237C154.53 66.1208 154.708 65.8382 154.775 65.5236L154.785 65.5308L171.275 44.0388L171.277 44.0369C171.43 43.8372 171.495 43.5868 171.457 43.3408C171.42 43.0947 171.283 42.8732 171.076 42.7249Z" fill="#3D5656"/>
    <path d="M69.2158 144.445L72.4718 146.058L80.4479 134.669L75.6426 132.288L69.2158 144.445Z" fill="#FFB7B7"/>
    <path d="M68.9291 143.005L75.3413 146.181L75.3416 146.181C76.4252 146.718 77.2442 147.65 77.6183 148.771C77.9924 149.893 77.8911 151.112 77.3365 152.161L77.2685 152.29L66.77 147.089L68.9291 143.005Z" fill="#151E1E"/>
    <path d="M106.82 148.858H110.478L112.218 135.201H106.82L106.82 148.858Z" fill="#FFB7B7"/>
    <path d="M105.887 147.702L113.09 147.701H113.09C114.308 147.701 115.475 148.17 116.336 149.003C117.197 149.836 117.681 150.966 117.681 152.145V152.289L105.887 152.29L105.887 147.702Z" fill="#151E1E"/>
    <path d="M89.712 37.466C89.712 37.466 87.2627 35.6496 87.2627 40.0865L86.876 54.7487L91.1944 68.5998L93.7081 64.1076L92.6768 54.3744L89.712 37.466Z" fill="#151E1E"/>
    <path d="M115.912 77.5697C115.912 77.5697 118.752 90.9588 115.154 101.947L113.166 144.195L105.876 143.645L103.32 112.303L100.859 96.7232L95.7466 110.928L78.8949 140.987L71.1318 135.122C71.1318 135.122 79.7346 112.4 86.09 107.629L89.2775 72.4866L115.912 77.5697Z" fill="#151E1E"/>
    <path d="M114.564 15.3782C116.766 11.479 115.286 6.59027 111.258 4.45882C107.23 2.32737 102.179 3.76036 99.9776 7.65949C97.7757 11.5586 99.256 16.4474 103.284 18.5788C107.312 20.7103 112.362 19.2773 114.564 15.3782Z" fill="#FFB7B7"/>
    <path d="M106.683 13.2254C107.679 13.3509 108.431 12.3641 108.779 11.4518C109.128 10.5396 109.394 9.4776 110.26 8.98483C111.443 8.31161 112.958 9.12131 114.311 8.89919C115.839 8.64836 116.833 7.08032 116.911 5.58155C116.989 4.08278 116.373 2.64128 115.768 1.25943L115.557 2.97676C115.585 2.39471 115.459 1.81539 115.19 1.29421C114.921 0.773029 114.518 0.327416 114.02 0L114.292 2.51991C114.234 2.17225 114.106 1.83908 113.915 1.53952C113.723 1.23996 113.473 0.97991 113.177 0.774289C112.882 0.568669 112.548 0.421528 112.194 0.341313C111.839 0.261098 111.472 0.249388 111.113 0.306853L111.156 1.80831C109.391 1.60511 107.61 1.40162 105.839 1.55643C104.069 1.71124 102.286 2.25352 100.944 3.38228C98.9366 5.07074 98.2035 7.85098 98.4496 10.4142C98.6958 12.9773 99.7888 15.3853 100.928 17.7113C101.215 18.2966 101.611 18.957 102.276 19.0315C102.873 19.0985 103.419 18.6153 103.605 18.0618C103.748 17.4939 103.742 16.9004 103.589 16.3351C103.421 15.4711 103.209 14.588 103.367 13.7223C103.525 12.8566 104.168 12.0011 105.07 11.895C105.971 11.7889 106.894 12.7864 106.46 13.5589L106.683 13.2254Z" fill="#151E1E"/>
    <path d="M116.426 81.1503L88.6807 79.4174L90.769 71.0425L116.127 76.5297L116.426 81.1503Z" fill="#CBCBCB"/>
    <path d="M99.3157 22.4919L101.056 20.1531C101.056 20.1531 103.001 20.793 108.21 23.303L108.578 25.4943L117.621 79.3313L101.185 78.645L96.7091 78.5528L95.2444 75.3746L93.4382 78.4855L89.0675 78.3955L84.6201 75.8998L89.003 62.9221L90.421 51.0676L88.2295 39.8994C88.2295 39.8994 85.472 29.6438 96.0929 24.1141L99.3157 22.4919Z" fill="#151E1E"/>
    <path d="M136.361 63.247C135.958 63.346 135.538 63.3583 135.13 63.2832C134.722 63.2081 134.336 63.0473 133.999 62.8121C133.662 62.5769 133.383 62.2732 133.181 61.9221C132.978 61.5711 132.858 61.1814 132.828 60.7804L123.077 58.2522L126.999 54.8806L135.658 57.7984C136.357 57.7943 137.033 58.0386 137.559 58.485C138.084 58.9314 138.423 59.5489 138.509 60.2205C138.596 60.8921 138.425 61.5711 138.029 62.1289C137.633 62.6867 137.039 63.0845 136.361 63.247Z" fill="#FFB7B7"/>
    <path d="M131.993 61.8197C131.788 61.9278 131.562 61.9929 131.329 62.0108C131.096 62.0286 130.862 61.9989 130.642 61.9235L114.601 56.03C110.688 54.6872 107.412 52.0141 105.382 48.508L98.6929 36.9569C98.2232 36.4493 97.8615 35.8571 97.6285 35.2141C97.3955 34.571 97.2957 33.8898 97.335 33.2094C97.3743 32.5291 97.5517 31.8629 97.8573 31.2489C98.1628 30.635 98.5904 30.0855 99.1156 29.6317C99.6407 29.1779 100.253 28.8289 100.918 28.6045C101.583 28.3801 102.286 28.2848 102.989 28.324C103.692 28.3633 104.38 28.5363 105.014 28.8331C105.647 29.13 106.214 29.5449 106.682 30.0541L118.26 47.8182L132.831 56.0876C133.117 56.269 133.338 56.5309 133.465 56.8379C133.591 57.145 133.618 57.4823 133.54 57.8042L132.816 60.7765C132.738 61.0952 132.561 61.3834 132.31 61.6026C132.214 61.6868 132.107 61.7597 131.993 61.8197Z" fill="#151E1E"/>
    <path d="M255.729 152.882H0.270899C0.199052 152.882 0.130148 152.855 0.0793444 152.806C0.0285409 152.756 0 152.69 0 152.62C0 152.551 0.0285409 152.484 0.0793444 152.435C0.130148 152.386 0.199052 152.358 0.270899 152.358H255.729C255.801 152.358 255.87 152.386 255.921 152.435C255.971 152.484 256 152.551 256 152.62C256 152.69 255.971 152.756 255.921 152.806C255.87 152.855 255.801 152.882 255.729 152.882Z" fill="#CBCBCB"/>
  </g>
  <defs>
    <clipPath id="clip0_426_315">
      <rect width="256" height="152.941" fill="white"/>
    </clipPath>
  </defs>
</svg>