<svg width="491" height="478" viewBox="0 0 491 478" fill="none" xmlns="http://www.w3.org/2000/svg">
    <g clip-path="url(#clip0_301_27)">
        <path
            d="M461.937 131.706C457.34 123.414 452.24 115.41 446.666 107.741C442.759 102.36 438.632 97.1594 434.283 92.1379H434.272C426.403 83.0475 417.846 74.5771 408.675 66.8018C406.798 65.2077 404.896 63.6464 402.968 62.1176C385.567 48.2746 366.271 36.9993 345.668 28.6363L345.851 58.7426L347.823 401.937H176.95L167.34 59.3901L168.056 29.7646C84.2829 64.9979 25.4615 147.838 25.4615 244.421C25.4459 264.356 27.9892 284.211 33.0292 303.499C35.1579 311.652 37.7352 319.682 40.7491 327.551C41.8372 330.407 42.9851 333.238 44.1929 336.044C44.775 337.409 45.3681 338.764 45.9828 340.113C46.7717 341.876 47.5932 343.633 48.4365 345.368C49.0893 346.734 49.7603 348.091 50.4494 349.438C51.3362 351.206 52.252 352.96 53.1969 354.699C53.9259 356.064 54.6766 357.419 55.4383 358.768C67.7263 380.504 83.4178 400.129 101.916 416.899C107.188 421.681 112.674 426.215 118.373 430.5C158.703 460.805 207.784 477.19 258.231 477.19C308.677 477.19 357.758 460.805 398.088 430.5C401.189 428.172 404.226 425.765 407.201 423.281C409.175 421.638 411.118 419.964 413.027 418.259C413.533 417.808 414.039 417.356 414.54 416.899C431.594 401.439 446.271 383.545 458.096 363.795C462.438 356.555 466.376 349.079 469.891 341.402C470.821 339.379 471.722 337.337 472.595 335.276C476.61 325.831 479.987 316.127 482.703 306.23C483.122 304.701 483.526 303.167 483.916 301.627V301.622C483.981 301.355 484.052 301.083 484.117 300.817C484.52 299.196 484.906 297.563 485.276 295.931V295.926C486.473 290.665 487.483 285.341 488.307 279.953C488.41 279.262 488.513 278.571 488.611 277.88C488.649 277.63 488.687 277.379 488.715 277.129V277.124C489.302 272.962 489.779 268.769 490.145 264.545C490.711 257.913 490.996 251.205 491 244.421C491.061 204.989 481.058 166.193 461.937 131.706Z"
            fill="#F7EFED" />
        <path
            d="M439.077 384.931C452.855 366.315 458.153 340.093 447.436 319.563C437.385 342.656 419.49 361.449 396.916 372.618C388.195 376.894 378.05 380.741 374.013 389.576C371.501 395.073 371.979 401.563 373.999 407.26C376.018 412.956 379.452 418.025 382.851 423.023L383.03 424.521C404.423 415.65 425.3 403.547 439.077 384.931Z"
            fill="#E4E9E8" />
        <path
            d="M446.98 319.728C446.362 338.888 439.724 357.366 428.007 372.537C425.542 375.848 422.571 378.75 419.203 381.136C415.847 383.354 411.959 384.633 407.941 384.84C404.199 385.108 400.341 384.949 396.729 386.122C394.889 386.75 393.203 387.76 391.781 389.085C390.359 390.41 389.233 392.021 388.477 393.812C386.477 398.226 386.183 403.095 386.06 407.866C385.924 413.164 385.867 418.669 383.368 423.485C383.065 424.068 383.989 424.504 384.291 423.921C388.639 415.542 385.816 405.744 388.406 396.936C389.615 392.826 392.07 389.055 396.173 387.408C399.762 385.968 403.741 386.129 407.532 385.89C411.454 385.746 415.281 384.643 418.679 382.679C422.157 380.472 425.235 377.69 427.78 374.45C433.626 367.249 438.304 359.174 441.641 350.52C445.505 340.664 447.655 330.22 447.997 319.639C448.018 318.984 447 319.077 446.98 319.728Z"
            fill="#F7EFED" />
        <path
            d="M432.066 367.874C434.879 369.494 438.176 370.062 441.368 369.476C444.56 368.89 447.44 367.188 449.494 364.675C449.908 364.165 449.135 363.498 448.72 364.009C446.812 366.353 444.129 367.938 441.156 368.477C438.182 369.017 435.113 368.476 432.503 366.951C431.936 366.621 431.502 367.545 432.066 367.874Z"
            fill="#F7EFED" />
        <path
            d="M409.856 384.954C408.076 378.562 408.77 371.734 411.8 365.832C412.101 365.247 411.178 364.811 410.877 365.395C407.735 371.543 407.028 378.65 408.895 385.297C409.073 385.931 410.033 385.584 409.856 384.954Z"
            fill="#F7EFED" />
        <path
            d="M444.152 340.711C442.934 340.311 441.833 339.614 440.95 338.684C440.067 337.753 439.429 336.618 439.093 335.38C438.923 334.744 437.963 335.092 438.132 335.724C438.51 337.09 439.216 338.343 440.189 339.373C441.163 340.403 442.373 341.179 443.716 341.634C443.839 341.687 443.978 341.692 444.104 341.647C444.23 341.602 444.334 341.51 444.396 341.391C444.453 341.268 444.459 341.128 444.414 341.001C444.368 340.874 444.274 340.769 444.152 340.711Z"
            fill="#F7EFED" />
        <path
            d="M370.744 303.225C370.839 303.624 370.934 304.024 371.024 304.43C372.274 309.812 373.085 315.286 373.448 320.798C373.483 321.224 373.512 321.656 373.535 322.082C374.269 335.373 372.53 348.684 368.405 361.34C366.759 366.374 364.732 371.276 362.343 376.003C359.042 382.531 354.944 389.346 354.019 396.376C353.915 397.109 353.856 397.847 353.842 398.587L381.189 424.623C381.281 424.651 381.367 424.685 381.459 424.713L382.503 425.803C382.644 425.568 382.784 425.321 382.924 425.086C383.006 424.949 383.082 424.808 383.164 424.671C383.217 424.579 383.269 424.486 383.322 424.406C383.34 424.375 383.357 424.344 383.369 424.319C383.422 424.239 383.462 424.158 383.509 424.084C384.298 422.706 385.078 421.32 385.85 419.926C385.856 419.92 385.856 419.92 385.856 419.907C391.713 409.271 396.733 398.052 399.89 386.427C399.985 386.077 400.086 385.722 400.168 385.36C401.563 380.112 402.525 374.76 403.048 369.355C403.324 366.395 403.45 363.422 403.426 360.449C403.349 352.768 402.064 345.146 399.618 337.863C394.74 323.347 385.274 310.552 371.78 303.735C371.435 303.561 371.095 303.392 370.744 303.225Z"
            fill="#E4E9E8" />
        <path
            d="M370.476 303.63C381.518 319.3 387.343 338.05 387.122 357.219C387.147 361.346 386.522 365.452 385.27 369.384C383.926 373.176 381.591 376.538 378.508 379.122C375.681 381.589 372.505 383.785 370.327 386.896C369.236 388.505 368.498 390.327 368.16 392.241C367.823 394.156 367.894 396.12 368.368 398.005C369.429 402.733 372.126 406.798 374.9 410.681C377.981 414.993 381.25 419.423 382.154 424.773C382.264 425.421 383.263 425.213 383.154 424.566C381.581 415.258 373.427 409.134 370.193 400.542C368.684 396.532 368.374 392.044 370.658 388.258C372.656 384.948 375.93 382.68 378.813 380.207C381.858 377.731 384.25 374.546 385.78 370.932C387.229 367.076 388.011 363.001 388.093 358.883C388.425 349.613 387.298 340.349 384.752 331.43C381.903 321.234 377.331 311.601 371.234 302.947C370.857 302.412 370.101 303.098 370.476 303.63Z"
            fill="#F7EFED" />
        <path
            d="M387.556 351.051C390.777 350.651 393.751 349.12 395.947 346.73C398.144 344.34 399.419 341.247 399.545 338.004C399.568 337.348 398.549 337.28 398.526 337.938C398.414 340.958 397.226 343.839 395.177 346.06C393.127 348.282 390.351 349.697 387.349 350.051C386.697 350.129 386.908 351.128 387.556 351.051Z"
            fill="#F7EFED" />
        <path
            d="M380.105 378.06C374.835 374.029 371.279 368.159 370.144 361.622C370.033 360.974 369.033 361.182 369.145 361.829C370.338 368.629 374.052 374.73 379.545 378.913C380.068 379.311 380.626 378.456 380.105 378.06Z"
            fill="#F7EFED" />
        <path
            d="M380.851 322.086C379.637 322.501 378.339 322.607 377.074 322.396C375.808 322.184 374.615 321.662 373.602 320.876C373.083 320.471 372.526 321.327 373.041 321.729C374.165 322.592 375.483 323.168 376.881 323.404C378.278 323.641 379.712 323.531 381.058 323.086C381.188 323.055 381.302 322.975 381.375 322.863C381.449 322.751 381.477 322.615 381.454 322.483C381.426 322.351 381.347 322.235 381.234 322.161C381.121 322.086 380.983 322.06 380.851 322.086Z"
            fill="#F7EFED" />
        <path
            d="M10.8665 280.669C-1.35241 260.995 -4.50254 234.429 7.84761 214.838C15.9887 238.671 32.2975 258.856 53.8886 271.823C62.2335 276.793 72.0326 281.452 75.338 290.586C77.3949 296.269 76.3907 302.699 73.9153 308.212C71.4396 313.726 67.6046 318.498 63.8115 323.204L63.5114 324.682C42.9094 314.103 23.0855 300.342 10.8665 280.669Z"
            fill="#E4E9E8" />
        <path
            d="M8.2899 215.039C7.34812 234.186 12.4631 253.142 22.9083 269.216C25.0955 272.716 27.8208 275.85 30.9837 278.501C34.1484 280.985 37.9203 282.575 41.9076 283.108C45.6154 283.679 49.4742 283.835 52.9785 285.297C54.7612 286.073 56.3598 287.216 57.6696 288.653C58.9794 290.089 59.9707 291.786 60.5785 293.633C62.2128 298.194 62.1105 303.071 61.8448 307.837C61.5498 313.128 61.1595 318.619 63.2588 323.622C63.5131 324.229 62.5576 324.588 62.3037 323.982C58.6514 315.278 62.2613 305.742 60.3948 296.752C59.5239 292.557 57.3835 288.6 53.4278 286.625C49.9687 284.898 45.9895 284.734 42.2303 284.188C38.3329 283.726 34.6082 282.316 31.3813 280.082C28.0935 277.6 25.2521 274.576 22.9787 271.141C17.7372 263.489 13.7314 255.06 11.1082 246.163C8.05808 236.026 6.76452 225.441 7.28348 214.868C7.31587 214.214 8.32209 214.389 8.2899 215.039Z"
            fill="#F7EFED" />
        <path
            d="M19.2402 264.238C16.3055 265.624 12.9735 265.922 9.83932 265.079C6.70512 264.235 3.97282 262.305 2.13036 259.633C1.75941 259.091 2.58415 258.489 2.95559 259.032C4.66669 261.523 7.21202 263.321 10.1322 264.101C13.0523 264.88 16.155 264.59 18.8801 263.283C19.4726 263 19.8294 263.956 19.2402 264.238Z"
            fill="#F7EFED" />
        <path
            d="M39.9894 283.066C42.2834 276.84 42.1464 269.979 39.606 263.849C39.3538 263.242 40.3092 262.883 40.5611 263.489C43.1928 269.872 43.3208 277.013 40.9194 283.487C40.6901 284.104 39.7614 283.679 39.9894 283.066Z"
            fill="#F7EFED" />
        <path
            d="M9.40232 236.183C10.6496 235.883 11.8029 235.278 12.7587 234.422C13.7144 233.567 14.4426 232.487 14.878 231.28C15.0994 230.661 16.0279 231.086 15.808 231.701C15.3208 233.032 14.5151 234.223 13.4612 235.171C12.4074 236.119 11.1375 236.794 9.76245 237.138C9.63556 237.181 9.49695 237.174 9.37481 237.119C9.25266 237.064 9.15613 236.964 9.10484 236.84C9.05779 236.714 9.06264 236.574 9.11834 236.45C9.17405 236.327 9.2761 236.231 9.40232 236.183Z"
            fill="#F7EFED" />
        <path
            d="M85.6145 204.786C85.4873 205.177 85.36 205.568 85.2379 205.965C83.5546 211.227 82.3015 216.617 81.4911 222.082C81.4217 222.504 81.3578 222.932 81.3007 223.354C79.4886 236.541 80.1404 249.95 83.2231 262.899C84.4545 268.051 86.0761 273.101 88.0738 278.007C90.8331 284.781 94.3638 291.907 94.7136 298.989C94.7584 299.727 94.7574 300.468 94.7106 301.206L65.3387 324.934C65.2449 324.954 65.1562 324.982 65.062 325.002L63.9326 326.003C63.8119 325.757 63.692 325.5 63.5713 325.254C63.5007 325.112 63.4366 324.964 63.366 324.822C63.321 324.725 63.2763 324.629 63.2302 324.544C63.2151 324.512 63.2003 324.48 63.1906 324.454C63.1445 324.37 63.1106 324.286 63.0699 324.208C62.3957 322.771 61.7304 321.326 61.0741 319.874C61.0687 319.867 61.0687 319.867 61.0699 319.855C56.0972 308.777 52.0057 297.187 49.8034 285.345C49.7372 284.989 49.6653 284.626 49.6126 284.259C48.6495 278.915 48.1248 273.502 48.0437 268.073C48.0088 265.1 48.1244 262.127 48.3902 259.166C49.0915 251.516 50.9917 244.023 54.0213 236.964C60.0627 222.892 70.5374 210.908 84.5404 205.211C84.8987 205.065 85.2508 204.925 85.6145 204.786Z"
            fill="#E4E9E8" />
        <path
            d="M85.8496 205.212C73.5701 219.933 66.2411 238.148 64.9035 257.271C64.5424 261.382 64.8317 265.525 65.7607 269.546C66.7923 273.435 68.8463 276.976 71.7092 279.802C74.3256 282.49 77.3133 284.937 79.2307 288.215C80.1872 289.907 80.7752 291.783 80.9561 293.718C81.137 295.654 80.9067 297.606 80.2803 299.446C78.8388 304.072 75.821 307.905 72.7396 311.55C69.3183 315.597 65.7006 319.746 64.3645 325.005C64.2026 325.642 63.2235 325.354 63.3851 324.717C65.7096 315.569 74.3336 310.128 78.2556 301.826C80.0857 297.953 80.7595 293.504 78.7902 289.545C77.0681 286.084 73.9893 283.558 71.3165 280.858C68.4832 278.143 66.3581 274.774 65.1266 271.048C63.9959 267.087 63.5475 262.962 63.8006 258.85C64.2228 249.584 66.0992 240.443 69.3612 231.76C73.0291 221.829 78.3687 212.6 85.149 204.47C85.5688 203.967 86.2667 204.713 85.8496 205.212Z"
            fill="#F7EFED" />
        <path
            d="M64.9715 251.088C61.7936 250.428 58.9537 248.66 56.9591 246.099C54.9645 243.539 53.945 240.352 54.0826 237.11C54.0895 236.977 54.1474 236.853 54.2441 236.763C54.3408 236.672 54.4689 236.623 54.6012 236.625C54.7336 236.627 54.8599 236.681 54.9536 236.774C55.0473 236.868 55.101 236.994 55.1035 237.126C54.9697 240.146 55.9197 243.114 57.7819 245.494C59.6442 247.875 62.2961 249.511 65.2589 250.108C65.9027 250.239 65.6115 251.217 64.9715 251.088Z"
            fill="#F7EFED" />
        <path
            d="M70.203 278.613C75.7829 275.023 79.8048 269.462 81.4666 263.039C81.6307 262.402 82.61 262.69 82.446 263.326C80.7042 270.007 76.5071 275.786 70.6923 279.509C70.1378 279.863 69.6516 278.966 70.203 278.613Z"
            fill="#F7EFED" />
        <path
            d="M74.0077 222.764C75.1841 223.276 76.4692 223.487 77.7474 223.379C79.0257 223.271 80.2572 222.848 81.3313 222.146C81.881 221.785 82.3667 222.683 81.8206 223.042C80.6303 223.812 79.2696 224.278 77.8576 224.4C76.4456 224.522 75.0251 224.297 73.7202 223.743C73.5929 223.702 73.4862 223.613 73.422 223.495C73.3577 223.377 73.3407 223.24 73.3743 223.11C73.413 222.981 73.5012 222.872 73.6198 222.807C73.7385 222.742 73.8778 222.727 74.0077 222.764Z"
            fill="#F7EFED" />
        <path
            d="M237.689 79.8435C255.549 79.8435 270.028 65.3648 270.028 47.5045C270.028 29.6442 255.549 15.1655 237.689 15.1655C219.829 15.1655 205.35 29.6442 205.35 47.5045C205.35 65.3648 219.829 79.8435 237.689 79.8435Z"
            fill="#E08E78" />
        <path
            d="M336.704 45.8169C333.79 42.7386 330.714 39.8183 327.488 37.0687C321.188 31.7262 314.213 27.1834 306.439 24.3217C303.512 23.2408 300.487 22.4446 297.408 21.9442C297.038 21.8844 296.673 21.8246 296.303 21.7756C296.276 21.7729 296.249 21.7729 296.222 21.7756C296.165 21.7595 296.106 21.7486 296.047 21.743C295.291 21.645 294.535 21.5689 293.773 21.5145C289.671 21.2418 285.552 21.6126 281.565 22.6134C279.252 23.1971 276.994 23.9836 274.819 24.9637C272.64 26.0306 270.527 27.2278 268.492 28.5489C267.399 29.2128 266.273 29.8211 265.119 30.3715C261.748 31.9683 258.181 33.1099 254.51 33.7663C252.031 34.2111 249.52 34.4585 247.002 34.5062C244.815 34.5498 242.753 34.6259 240.68 35.4148C238.468 36.246 236.481 37.5832 234.878 39.3194C233.275 41.0557 232.1 43.143 231.448 45.4143C231.396 45.616 231.411 45.8289 231.489 46.0217C231.567 46.2146 231.705 46.3773 231.883 46.486C232.443 46.8887 232.987 47.3456 233.58 47.7047C234.104 47.9436 234.662 48.096 235.234 48.1563C236.17 48.3521 237.108 48.5426 238.047 48.7275C241.502 49.413 244.971 50.0205 248.455 50.5501C255.462 51.611 262.509 52.3581 269.596 52.7915C269.639 52.7979 269.683 52.8015 269.727 52.8024C277.733 53.2857 285.759 53.3637 293.773 53.0364C294.987 52.9874 296.194 52.9275 297.408 52.8568C302.462 52.5739 307.503 52.1278 312.532 51.5185C317.184 50.9527 321.817 50.2509 326.432 49.413C329.729 48.8146 333.013 48.1472 336.285 47.4109C336.444 47.3639 336.588 47.2767 336.703 47.1578C336.819 47.0389 336.901 46.8922 336.943 46.7319C336.986 46.5717 336.986 46.4033 336.944 46.243C336.902 46.0827 336.819 45.936 336.704 45.8169Z"
            fill="#E4E9E8" />
        <path
            d="M269.487 88.9378C264.806 83.9295 259.647 79.3889 254.086 75.3803C252.241 74.0855 250.343 72.8668 248.389 71.7515C245.995 70.3692 243.508 69.1532 240.947 68.1118C240.376 67.8779 239.799 67.6549 239.222 67.4427C235.946 66.2292 232.548 65.3755 229.087 64.8965C229.06 64.8911 229.032 64.8965 229.005 64.8911C228.951 64.8802 228.891 64.8694 228.837 64.8585C227.159 64.6409 225.469 64.5373 223.777 64.5483C222.564 64.5483 221.345 64.6137 220.137 64.7333C218.186 64.9256 216.251 65.2601 214.349 65.7344C213.407 65.9683 212.472 66.2403 211.552 66.5504C210.211 66.9918 208.895 67.5039 207.608 68.0846C207.586 68.0955 207.57 68.101 207.548 68.1118C205.388 69.1685 203.295 70.3568 201.281 71.6699C201.237 71.6971 201.188 71.7243 201.145 71.7515C198.857 73.1202 196.436 74.254 193.92 75.1355C191.76 75.8908 189.544 76.4765 187.293 76.8873C184.815 77.3332 182.304 77.5788 179.786 77.6217C177.599 77.6653 175.537 77.7414 173.469 78.5357C171.256 79.3667 169.269 80.7038 167.665 82.44C166.061 84.1763 164.885 86.2636 164.231 88.5352C164.181 88.737 164.196 88.9495 164.274 89.1421C164.352 89.3347 164.49 89.4975 164.667 89.607C165.227 90.0096 165.776 90.4612 166.364 90.8202C166.887 91.0609 167.446 91.2134 168.018 91.2718C168.954 91.4677 169.889 91.6635 170.831 91.8484C174.285 92.534 177.756 93.1397 181.244 93.6656C186.026 94.3892 190.828 94.9677 195.65 95.4011C197.935 95.6133 200.222 95.7874 202.51 95.9234C208.381 96.277 214.256 96.4148 220.137 96.3368C221.351 96.3205 222.564 96.2933 223.777 96.2552C230.98 96.043 238.162 95.5026 245.321 94.634C253.301 93.6685 261.228 92.2975 269.069 90.5264C269.227 90.48 269.371 90.3933 269.486 90.2748C269.602 90.1564 269.684 90.0102 269.726 89.8504C269.769 89.6906 269.769 89.5226 269.727 89.3627C269.685 89.2028 269.603 89.0565 269.487 88.9378Z"
            fill="#E4E9E8" />
        <path d="M188.88 2.14712L217.37 395.849L160.39 400.907V7.15612C167.18 1.85253 176.926 1.02277 188.88 2.14712Z"
            fill="#C7D1D1" />
        <path
            d="M329.511 2.14712L301.021 395.849L358.001 400.907V7.15612C351.211 1.85253 341.465 1.02277 329.511 2.14712Z"
            fill="#C7D1D1" />
        <path
            d="M359.342 7.32789C357.573 2.9928 353.814 0 349.467 0H168.317C162.273 0 157.36 5.79937 157.36 12.9346V404.242C157.307 407.862 158.661 411.362 161.136 414.004C162.43 415.364 164.07 416.347 165.88 416.849C166.673 417.069 167.493 417.179 168.317 417.177H349.467C350.291 417.179 351.111 417.069 351.904 416.849C356.779 415.539 360.424 410.388 360.424 404.242V12.9346C360.429 11.0133 360.062 9.10921 359.342 7.32789ZM356.79 404.242C356.79 409.008 353.504 412.887 349.467 412.887H168.317C164.971 412.887 162.137 410.221 161.272 406.593C161.087 405.823 160.994 405.034 160.994 404.242V12.9346C160.994 8.16923 164.28 4.29657 168.317 4.29657H349.467C350.21 4.29599 350.947 4.42867 351.643 4.68833C354.619 5.78014 356.79 9.06195 356.79 12.9346V404.242Z"
            fill="#C7D1D1" />
        <path d="M358.607 118.944H159.178V122.581H358.607V118.944Z" fill="#C7D1D1" />
        <path d="M358.607 43.866H159.178V47.503H358.607V43.866Z" fill="#C7D1D1" />
        <path d="M358.607 179.561H159.178V183.198H358.607V179.561Z" fill="#C7D1D1" />
        <path d="M223.894 1.63214H220.257V231.085H223.894V1.63214Z" fill="#C7D1D1" />
        <path d="M297.527 1.63214H293.89V231.085H297.527V1.63214Z" fill="#C7D1D1" />
        <path
            d="M381.337 394.447H142.507C138.168 394.452 134.009 396.178 130.941 399.245C127.873 402.313 126.147 406.473 126.142 410.811C126.14 412.898 126.541 414.965 127.323 416.899C128.538 419.933 130.633 422.534 133.339 424.367C136.046 426.2 139.239 427.18 142.507 427.182H381.337C384.194 427.181 387 426.432 389.478 425.01C391.956 423.588 394.018 421.542 395.46 419.076C395.871 418.378 396.227 417.651 396.526 416.899C397.308 414.965 397.709 412.898 397.707 410.811C397.701 406.472 395.974 402.313 392.905 399.245C389.836 396.177 385.676 394.452 381.337 394.447Z"
            fill="#C7D1D1" />
        <path d="M358.607 222.599H160.39V234.722H358.607V222.599Z" fill="#C7D1D1" />
        <path
            d="M257.68 218.962H261.317C263.085 218.962 264.781 219.664 266.031 220.915C267.282 222.165 267.984 223.861 267.984 225.629H251.012C251.012 224.754 251.184 223.887 251.519 223.078C251.854 222.269 252.346 221.534 252.965 220.915C253.584 220.295 254.319 219.804 255.128 219.469C255.937 219.134 256.804 218.962 257.68 218.962Z"
            fill="#C7D1D1" />
        <path
            d="M262.995 256.789C283.742 256.789 300.56 239.971 300.56 219.224C300.56 198.478 283.742 181.659 262.995 181.659C242.249 181.659 225.43 198.478 225.43 219.224C225.43 239.971 242.249 256.789 262.995 256.789Z"
            fill="#FFB8B8" />
        <path
            d="M221.09 183.087C221.374 178.773 224.227 174.358 233.291 172.052C233.291 172.052 248.846 152.161 269.983 162.592C269.983 162.592 280.23 160.829 287.829 171.461C287.829 171.461 295.363 167.018 298.541 174.893C298.541 174.893 307.377 190.958 304.124 207.343C300.871 223.729 299.206 225.774 299.206 225.774C299.206 225.774 303.352 191.88 279.471 194.231C255.589 196.581 236.362 188.182 230.954 206.57C226.463 221.839 227.029 229.769 227.029 229.769C227.029 229.769 212.012 214.537 217.118 202.543C219.729 196.409 220.652 189.739 221.09 183.087Z"
            fill="#3D5656" />
        <path
            d="M160.842 424.516H368.624C367.235 408.666 366.328 348.08 366.328 344.093C366.328 326.505 351.937 307.312 351.937 307.312L346.785 304.465L303.767 291.043L292.635 276.583C291.469 275.064 289.967 273.836 288.246 272.996C286.526 272.156 284.634 271.727 282.72 271.742L247.553 272.005C244.458 272.029 241.484 273.208 239.213 275.31L217.436 295.512L185.497 310.764L185.442 310.71L185.109 310.958L180.369 314.372L177.32 316.575C177.32 316.575 169.321 326.172 162.929 354.954C161.967 359.283 161.292 415.323 160.842 424.516Z"
            fill="#009694" />
        <path
            d="M416.716 416.899C416.216 417.356 415.71 417.808 415.204 418.26C413.289 419.962 411.346 421.636 409.377 423.281C406.401 425.762 403.363 428.168 400.264 430.501H120.55C114.853 426.224 109.368 421.691 104.092 416.899H416.716Z"
            fill="#C7D1D1" />
        <path d="M314.186 420.164H211.362L213.538 409.827H312.01L314.186 420.164Z" fill="#3D5656" />
        <path
            d="M407.212 375.552H380.456C379.852 375.55 379.255 375.681 378.707 375.935C378.159 376.188 377.674 376.559 377.284 377.021C376.911 376.949 376.533 376.913 376.153 376.912C375.319 376.911 374.493 377.075 373.722 377.393C372.952 377.712 372.251 378.179 371.661 378.769C371.071 379.358 370.603 380.058 370.284 380.828C369.965 381.599 369.8 382.424 369.8 383.258C369.8 384.092 369.965 384.918 370.284 385.688C370.603 386.459 371.071 387.159 371.661 387.748C372.251 388.337 372.952 388.805 373.722 389.123C374.493 389.442 375.319 389.605 376.153 389.605C377.111 389.604 378.056 389.385 378.917 388.963L379.363 394.447L381.136 416.121C381.22 416.392 381.334 416.653 381.473 416.899C381.832 417.558 382.361 418.107 383.006 418.49C383.65 418.873 384.385 419.075 385.135 419.076H402.533C403.284 419.075 404.02 418.872 404.665 418.489C405.31 418.106 405.84 417.557 406.2 416.899C406.336 416.652 406.447 416.391 406.532 416.121L411.211 380.965C411.403 380.34 411.446 379.677 411.336 379.032C411.226 378.387 410.966 377.776 410.577 377.25C410.188 376.723 409.681 376.295 409.097 376C408.512 375.706 407.867 375.552 407.212 375.552ZM376.153 387.793C374.951 387.792 373.799 387.313 372.95 386.463C372.1 385.613 371.623 384.46 371.623 383.258C371.623 382.057 372.1 380.904 372.95 380.054C373.799 379.204 374.951 378.725 376.153 378.724C376.234 378.724 376.31 378.746 376.392 378.751C376.213 379.481 376.236 380.247 376.457 380.965L378.372 387.189C377.698 387.581 376.933 387.789 376.153 387.793Z"
            fill="#3D5656" />
        <path
            d="M346.78 260.525H177.408C175.953 260.527 174.558 261.106 173.529 262.135C172.5 263.164 171.921 264.559 171.918 266.014V380.307C171.92 381.762 172.499 383.158 173.528 384.187C174.557 385.216 175.952 385.795 177.408 385.796H346.78C348.235 385.795 349.63 385.216 350.66 384.187C351.689 383.158 352.268 381.762 352.269 380.307V266.014C352.267 264.559 351.688 263.164 350.659 262.135C349.63 261.106 348.235 260.527 346.78 260.525Z"
            fill="#3D5656" />
        <path
            d="M281.168 352.104H241.545C240.984 352.105 240.447 352.328 240.051 352.725C239.656 353.122 239.433 353.66 239.434 354.22V416.812H283.284V354.22C283.284 353.942 283.23 353.667 283.123 353.41C283.017 353.153 282.861 352.92 282.664 352.723C282.468 352.527 282.235 352.371 281.978 352.265C281.721 352.158 281.446 352.104 281.168 352.104ZM261.49 387.668C260.251 387.662 259.064 387.167 258.188 386.291C257.311 385.415 256.817 384.228 256.811 382.989V375.77C256.812 374.53 257.306 373.341 258.183 372.465C259.06 371.588 260.25 371.096 261.49 371.096C262.73 371.096 263.919 371.588 264.796 372.465C265.673 373.341 266.167 374.53 266.168 375.77V382.989C266.163 384.228 265.668 385.415 264.792 386.291C263.915 387.167 262.729 387.662 261.49 387.668Z"
            fill="#3D5656" />
        <path
            d="M239.298 414.81V420.849C239.299 421.162 239.424 421.462 239.645 421.683C239.866 421.904 240.166 422.029 240.479 422.03H282.24C282.552 422.028 282.852 421.903 283.073 421.682C283.294 421.461 283.419 421.162 283.42 420.849V414.81H239.298Z"
            fill="#3D5656" />
        <path
            d="M343.178 379.112C344.655 379.112 345.852 377.915 345.852 376.438C345.852 374.962 344.655 373.764 343.178 373.764C341.702 373.764 340.504 374.962 340.504 376.438C340.504 377.915 341.702 379.112 343.178 379.112Z"
            fill="#3D5656" />
        <path
            d="M198.789 372.56C198.666 372.56 198.544 372.584 198.431 372.631C198.317 372.678 198.214 372.747 198.127 372.834C198.04 372.921 197.971 373.024 197.924 373.137C197.877 373.251 197.853 373.373 197.853 373.496V378.31C197.854 378.558 197.953 378.796 198.128 378.97C198.303 379.145 198.541 379.244 198.789 379.244C199.037 379.244 199.274 379.145 199.45 378.97C199.625 378.796 199.724 378.558 199.725 378.31V373.496C199.725 373.373 199.7 373.251 199.653 373.137C199.606 373.024 199.537 372.921 199.451 372.834C199.364 372.747 199.26 372.678 199.147 372.631C199.033 372.584 198.912 372.56 198.789 372.56Z"
            fill="#3D5656" />
        <path
            d="M203.87 372.56C203.747 372.56 203.626 372.584 203.512 372.631C203.399 372.678 203.296 372.747 203.209 372.834C203.122 372.921 203.053 373.024 203.006 373.137C202.959 373.251 202.935 373.373 202.935 373.496V378.31C202.935 378.559 203.033 378.797 203.209 378.972C203.384 379.148 203.622 379.246 203.87 379.246C204.119 379.246 204.357 379.148 204.532 378.972C204.708 378.797 204.806 378.559 204.806 378.31V373.496C204.806 373.373 204.782 373.251 204.735 373.137C204.688 373.024 204.619 372.921 204.532 372.834C204.445 372.747 204.342 372.678 204.228 372.631C204.115 372.584 203.993 372.56 203.87 372.56Z"
            fill="#3D5656" />
        <path
            d="M208.952 372.56C208.829 372.56 208.707 372.584 208.594 372.631C208.48 372.678 208.377 372.747 208.29 372.834C208.203 372.921 208.134 373.024 208.087 373.137C208.04 373.251 208.016 373.373 208.016 373.496V378.31C208.017 378.558 208.116 378.796 208.291 378.97C208.466 379.145 208.704 379.244 208.952 379.244C209.2 379.244 209.437 379.145 209.613 378.97C209.788 378.796 209.887 378.558 209.888 378.31V373.496C209.888 373.373 209.863 373.251 209.816 373.137C209.769 373.024 209.7 372.921 209.614 372.834C209.527 372.747 209.424 372.678 209.31 372.631C209.196 372.584 209.075 372.56 208.952 372.56Z"
            fill="#3D5656" />
        <path
            d="M214.033 372.56C213.91 372.56 213.788 372.584 213.675 372.631C213.561 372.678 213.458 372.747 213.371 372.834C213.284 372.921 213.215 373.024 213.168 373.137C213.121 373.251 213.097 373.373 213.097 373.496V378.31C213.098 378.558 213.197 378.796 213.372 378.97C213.548 379.145 213.785 379.244 214.033 379.244C214.281 379.244 214.518 379.145 214.694 378.97C214.869 378.796 214.968 378.558 214.969 378.31V373.496C214.969 373.373 214.944 373.251 214.897 373.137C214.85 373.024 214.782 372.921 214.695 372.834C214.608 372.747 214.505 372.678 214.391 372.631C214.277 372.584 214.156 372.56 214.033 372.56Z"
            fill="#3D5656" />
        <path
            d="M218.087 417.443C225.899 417.443 232.232 411.11 232.232 403.298C232.232 395.486 225.899 389.153 218.087 389.153C210.275 389.153 203.942 395.486 203.942 403.298C203.942 411.11 210.275 417.443 218.087 417.443Z"
            fill="#FFB8B8" />
        <path
            d="M316.906 420.164C324.718 420.164 331.051 413.831 331.051 406.019C331.051 398.206 324.718 391.873 316.906 391.873C309.094 391.873 302.761 398.206 302.761 406.019C302.761 413.831 309.094 420.164 316.906 420.164Z"
            fill="#FFB8B8" />
    </g>
    <defs>
        <clipPath id="clip0_301_27">
            <rect width="491" height="477.19" fill="white" />
        </clipPath>
    </defs>
    <style>
      
        @media (prefers-color-scheme: dark){
            [fill="#F7EFED"]{
                fill: #0005;
            }
            
        }
            
    </style>
</svg>
