<svg xmlns="http://www.w3.org/2000/svg" width="256" height="153" viewBox="0 0 256 153" fill="none">
  <g clip-path="url(#clip0_426_236)">
    <path d="M15.0843 117.33C7.54932 114.585 1.00846 108.016 0.178711 100.028C7.49356 104.782 16.2512 106.79 24.9023 105.699C28.2371 105.266 31.9012 104.436 34.7549 106.218C36.5306 107.327 37.6329 109.295 38.1386 111.329C38.6443 113.363 38.6215 115.486 38.5957 117.581L38.8303 118.049C30.9592 119.579 22.6193 120.076 15.0843 117.33Z" fill="#D5DDDC"/>
    <path d="M0.342152 99.9882C4.18198 105.41 9.62979 109.483 15.9118 111.627C17.256 112.113 18.6682 112.383 20.0964 112.428C21.4891 112.427 22.8561 112.052 24.0554 111.343C25.1869 110.704 26.2704 109.92 27.5372 109.568C28.1884 109.397 28.8681 109.366 29.532 109.477C30.1958 109.588 30.8288 109.838 31.3893 110.212C32.81 111.105 33.8255 112.457 34.7727 113.813C35.8244 115.319 36.893 116.9 38.5348 117.814C38.7337 117.925 38.5505 118.227 38.3518 118.117C35.4955 116.526 34.4379 113.153 32.0066 111.101C30.8721 110.144 29.4428 109.524 27.9435 109.833C26.6325 110.104 25.5144 110.912 24.3744 111.569C23.2145 112.278 21.899 112.691 20.5428 112.774C19.1168 112.802 17.6966 112.586 16.3428 112.137C13.2789 111.174 10.3853 109.734 7.76789 107.87C4.7689 105.76 2.15241 103.151 0.0316001 100.157C-0.0995871 99.9719 0.211822 99.804 0.342152 99.9882Z" fill="#F7EFED"/>
    <path d="M13.8484 111.056C13.3462 112.062 12.503 112.858 11.4694 113.299C10.4358 113.741 9.27917 113.8 8.20599 113.467C7.98906 113.398 8.08479 113.058 8.302 113.126C9.30077 113.439 10.3782 113.383 11.3398 112.97C12.3015 112.557 13.0839 111.813 13.5461 110.872C13.6467 110.668 13.9485 110.853 13.8484 111.056Z" fill="#F7EFED"/>
    <path d="M23.5243 111.743C22.8167 109.554 21.3115 107.712 19.3087 106.585C19.1102 106.474 19.2933 106.171 19.4916 106.282C21.5736 107.459 23.1361 109.378 23.8674 111.658C23.937 111.875 23.5935 111.959 23.5243 111.743Z" fill="#F7EFED"/>
    <path d="M5.16849 105.515C5.44386 105.166 5.62838 104.753 5.70546 104.315C5.78255 103.877 5.74978 103.427 5.61013 103.004C5.53786 102.788 5.88147 102.705 5.95327 102.92C6.1054 103.387 6.14097 103.885 6.05688 104.369C5.97278 104.853 5.77158 105.309 5.47085 105.698C5.44556 105.737 5.40641 105.765 5.36134 105.776C5.31627 105.787 5.26867 105.78 5.22821 105.758C5.1883 105.733 5.15964 105.694 5.14846 105.648C5.13728 105.603 5.14447 105.555 5.16849 105.515Z" fill="#F7EFED"/>
    <path d="M19.1959 80.6221C19.2449 80.7559 19.2939 80.8897 19.3457 81.0243C20.0132 82.8197 20.8253 84.5578 21.7738 86.2215C21.8451 86.3513 21.9194 86.4818 21.9942 86.6093C24.3222 90.5931 27.3683 94.1093 30.9777 96.9793C32.415 98.12 33.9369 99.1495 35.5301 100.059C37.7305 101.315 40.2161 102.501 41.8264 104.357C41.9966 104.549 42.1548 104.751 42.3 104.962L39.3813 117.726C39.3602 117.752 39.3419 117.778 39.3207 117.804L39.2274 118.319C39.142 118.278 39.0542 118.233 38.9688 118.192C38.9191 118.168 38.8701 118.142 38.8204 118.118C38.7876 118.101 38.7547 118.085 38.724 118.072C38.713 118.066 38.7021 118.06 38.694 118.055C38.6634 118.042 38.6363 118.027 38.6086 118.014C38.1175 117.767 37.6273 117.515 37.138 117.26C37.1351 117.259 37.135 117.259 37.1328 117.256C33.3857 115.346 29.8779 112.998 26.683 110.261C26.5888 110.178 26.4916 110.095 26.3987 110.006C24.9934 108.755 23.6924 107.392 22.5088 105.929C21.8633 105.126 21.2588 104.29 20.6976 103.426C19.2518 101.19 18.1662 98.74 17.4805 96.1659C16.1143 91.0344 16.4017 85.5223 18.9944 80.9681C19.0608 80.8516 19.1266 80.7379 19.1959 80.6221Z" fill="#D5DDDC"/>
    <path d="M19.3511 80.6877C19.158 87.3328 21.06 93.8698 24.787 99.3704C25.5684 100.569 26.5335 101.636 27.6467 102.534C28.7593 103.373 30.076 103.898 31.4598 104.055C32.7472 104.227 34.084 104.254 35.3071 104.737C35.9295 104.994 36.4908 105.379 36.9542 105.868C37.4175 106.357 37.7724 106.939 37.9956 107.575C38.5929 109.145 38.5914 110.836 38.5325 112.491C38.4671 114.327 38.3701 116.234 39.1314 117.954C39.2237 118.162 38.8954 118.294 38.8033 118.085C37.4787 115.093 38.6621 111.761 37.9537 108.657C37.6231 107.209 36.8548 105.852 35.4718 105.194C34.2625 104.62 32.884 104.591 31.579 104.427C30.2268 104.294 28.9277 103.831 27.7953 103.079C26.64 102.241 25.6355 101.213 24.8247 100.037C22.9573 97.4206 21.5123 94.5259 20.5426 91.4594C19.4165 87.9659 18.8953 84.3051 19.0015 80.6354C19.0082 80.4083 19.3578 80.4621 19.3511 80.6877Z" fill="#F7EFED"/>
    <path d="M23.483 97.6699C22.4768 98.171 21.3255 98.2975 20.2348 98.0268C19.144 97.7561 18.1849 97.1059 17.5286 96.1922C17.3964 96.0069 17.6777 95.7924 17.8101 95.978C18.4196 96.83 19.3132 97.4356 20.3294 97.6856C21.3456 97.9355 22.4175 97.8134 23.3517 97.3413C23.5548 97.2389 23.6849 97.5681 23.483 97.6699Z" fill="#F7EFED"/>
    <path d="M30.7957 104.054C31.5465 101.879 31.4515 99.5011 30.5296 97.3936C30.4381 97.1848 30.7663 97.0536 30.8577 97.2621C31.813 99.457 31.9068 101.932 31.1205 104.193C31.0454 104.409 30.721 104.268 30.7957 104.054Z" fill="#F7EFED"/>
    <path d="M19.883 88.0109C20.3127 87.8983 20.7077 87.6805 21.0326 87.3772C21.3574 87.0739 21.602 86.6945 21.7444 86.2731C21.8167 86.0567 22.141 86.1976 22.0692 86.4125C21.9098 86.8773 21.6391 87.296 21.2809 87.6319C20.9227 87.9679 20.4878 88.2108 20.0143 88.3395C19.9707 88.3554 19.9226 88.3541 19.88 88.3358C19.8373 88.3175 19.8032 88.2836 19.7846 88.241C19.7674 88.1974 19.7681 88.1488 19.7866 88.1057C19.805 88.0626 19.8397 88.0285 19.883 88.0109Z" fill="#F7EFED"/>
    <path d="M243.148 117.066C250.288 113.414 255.974 106.09 255.817 98.0603C249.141 103.678 240.696 106.75 231.977 106.732C228.614 106.713 224.876 106.341 222.263 108.46C220.636 109.779 219.784 111.869 219.532 113.949C219.279 116.03 219.563 118.134 219.845 120.211L219.67 120.703C227.669 121.253 236.007 120.719 243.148 117.066Z" fill="#D5DDDC"/>
    <path d="M255.65 98.0409C252.504 103.895 247.598 108.607 241.626 111.508C240.352 112.156 238.984 112.598 237.572 112.819C236.19 112.989 234.787 112.786 233.51 112.229C232.308 111.735 231.137 111.09 229.836 110.896C229.169 110.807 228.491 110.86 227.846 111.052C227.2 111.244 226.603 111.57 226.093 112.009C224.792 113.071 223.95 114.537 223.177 116C222.318 117.624 221.451 119.325 219.934 120.434C219.75 120.568 219.969 120.846 220.153 120.712C222.792 118.782 223.428 115.303 225.589 112.969C226.598 111.879 227.94 111.087 229.466 111.21C230.8 111.317 232.009 111.981 233.221 112.492C234.459 113.053 235.815 113.302 237.171 113.217C238.59 113.069 239.973 112.68 241.261 112.067C244.184 110.734 246.879 108.949 249.248 106.777C251.965 104.314 254.241 101.403 255.979 98.1704C256.086 97.9703 255.756 97.8421 255.65 98.0409Z" fill="#F7EFED"/>
    <path d="M243.604 110.687C244.226 111.625 245.16 112.31 246.24 112.621C247.32 112.932 248.475 112.849 249.5 112.385C249.706 112.291 249.57 111.965 249.362 112.059C248.41 112.492 247.334 112.57 246.329 112.278C245.324 111.987 244.456 111.345 243.882 110.468C243.757 110.278 243.48 110.498 243.604 110.687Z" fill="#F7EFED"/>
    <path d="M234.086 112.561C234.519 110.301 235.787 108.288 237.637 106.923C237.82 106.788 237.601 106.51 237.418 106.645C235.496 108.069 234.181 110.167 233.735 112.519C233.693 112.743 234.044 112.784 234.086 112.561Z" fill="#F7EFED"/>
    <path d="M251.538 104.12C251.222 103.807 250.988 103.421 250.858 102.996C250.728 102.57 250.705 102.119 250.792 101.683C250.837 101.459 250.486 101.419 250.441 101.641C250.347 102.124 250.373 102.622 250.516 103.092C250.659 103.562 250.914 103.99 251.261 104.339C251.29 104.374 251.333 104.397 251.379 104.403C251.425 104.408 251.471 104.396 251.509 104.368C251.545 104.339 251.569 104.297 251.574 104.25C251.58 104.204 251.567 104.157 251.538 104.12Z" fill="#F7EFED"/>
    <path d="M234.562 81.1428C234.53 81.2816 234.498 81.4205 234.463 81.5604C234.021 83.4244 233.428 85.2494 232.691 87.0172C232.636 87.1548 232.579 87.2934 232.52 87.4292C230.699 91.6694 228.107 95.534 224.877 98.8266C223.591 100.136 222.207 101.345 220.737 102.443C218.708 103.961 216.386 105.444 215.016 107.484C214.871 107.695 214.739 107.915 214.62 108.143L219.083 120.451C219.107 120.473 219.129 120.498 219.153 120.521L219.309 121.02C219.388 120.969 219.47 120.914 219.55 120.862C219.596 120.833 219.642 120.8 219.688 120.771C219.719 120.75 219.749 120.729 219.778 120.713C219.788 120.706 219.798 120.699 219.806 120.693C219.834 120.676 219.859 120.658 219.885 120.642C220.342 120.336 220.798 120.026 221.252 119.712C221.255 119.711 221.255 119.711 221.257 119.707C224.741 117.351 227.934 114.589 230.769 111.479C230.852 111.385 230.939 111.29 231.02 111.191C232.261 109.776 233.385 108.263 234.38 106.666C234.922 105.789 235.42 104.886 235.87 103.959C237.031 101.562 237.808 98.9965 238.172 96.3576C238.898 91.0968 237.937 85.6619 234.805 81.4614C234.725 81.354 234.645 81.2492 234.562 81.1428Z" fill="#D5DDDC"/>
    <path d="M234.417 81.2272C235.424 87.7981 234.338 94.5197 231.315 100.437C230.686 101.723 229.859 102.901 228.865 103.929C227.864 104.899 226.621 105.582 225.267 105.908C224.011 106.238 222.687 106.429 221.533 107.059C220.947 107.39 220.437 107.842 220.037 108.384C219.637 108.926 219.356 109.547 219.213 110.206C218.813 111.838 219.022 113.516 219.283 115.151C219.574 116.965 219.904 118.845 219.359 120.646C219.293 120.864 219.635 120.954 219.701 120.736C220.648 117.603 219.065 114.443 219.387 111.275C219.538 109.797 220.134 108.355 221.425 107.533C222.555 106.814 223.92 106.615 225.195 106.292C226.52 105.994 227.753 105.374 228.784 104.488C229.828 103.515 230.699 102.37 231.359 101.104C232.891 98.2772 233.97 95.2265 234.556 92.0639C235.245 88.4582 235.313 84.761 234.757 81.1322C234.723 80.9077 234.382 81.0041 234.417 81.2272Z" fill="#F7EFED"/>
    <path d="M232.4 98.5895C233.46 98.9629 234.618 98.9466 235.667 98.5437C236.717 98.1408 237.589 97.3774 238.128 96.3898C238.236 96.1896 237.931 96.0115 237.822 96.2119C237.322 97.1325 236.51 97.8435 235.532 98.2167C234.554 98.5899 233.475 98.6007 232.49 98.2472C232.276 98.1706 232.187 98.5133 232.4 98.5895Z" fill="#F7EFED"/>
    <path d="M225.926 105.825C224.914 103.76 224.717 101.388 225.373 99.1828C225.438 98.9644 225.096 98.8746 225.031 99.0927C224.353 101.389 224.563 103.856 225.621 106.004C225.722 106.208 226.027 106.029 225.926 105.825Z" fill="#F7EFED"/>
    <path d="M234.787 88.5606C234.347 88.5017 233.928 88.3343 233.569 88.0733C233.209 87.8122 232.92 87.4658 232.727 87.0651C232.629 86.8593 232.324 87.039 232.422 87.2435C232.637 87.6852 232.957 88.0673 233.354 88.3566C233.75 88.6459 234.212 88.8334 234.697 88.9029C234.743 88.9133 234.79 88.906 234.83 88.8826C234.87 88.8592 234.9 88.8214 234.913 88.7768C234.925 88.7314 234.918 88.6833 234.895 88.6428C234.871 88.6023 234.833 88.5728 234.787 88.5606Z" fill="#F7EFED"/>
    <path d="M222.994 5.25708H172.684V8.49899C172.683 8.665 172.74 8.82609 172.845 8.95462C172.743 11.4886 172.684 14.7235 172.684 18.2388V104.912C172.684 113.036 173.009 119.646 173.408 119.646H222.27C222.669 119.646 222.994 113.036 222.994 104.912V18.2388C222.994 14.7235 222.935 11.4886 222.833 8.95462C222.938 8.82608 222.995 8.66498 222.994 8.49899L222.994 5.25708Z" fill="#F7EFED"/>
    <path d="M222.27 119.996H173.408C173.027 119.996 172.776 119.996 172.547 115.343C172.409 112.55 172.334 108.845 172.334 104.912V18.2388C172.334 14.8414 172.391 11.5392 172.495 8.94059C172.56 7.38039 172.635 6.13061 172.717 5.2255C172.877 3.4536 173.03 3.1543 173.408 3.1543H222.27C222.648 3.1543 222.8 3.4536 222.961 5.2255C223.043 6.13403 223.118 7.38381 223.183 8.93991L223.183 8.94059C223.287 11.5365 223.344 14.8386 223.344 18.2388V104.912C223.344 108.846 223.268 112.55 223.131 115.343C222.902 119.996 222.651 119.996 222.27 119.996ZM173.607 119.295H222.071C222.324 118.338 222.644 113.137 222.644 104.912V18.2388C222.644 14.8479 222.587 11.556 222.484 8.96934C222.419 7.42437 222.345 6.18606 222.264 5.28882C222.233 4.80688 222.167 4.3278 222.068 3.85525H173.61C173.511 4.3278 173.445 4.80688 173.414 5.28882C173.333 6.18264 173.259 7.42094 173.194 8.96934C173.091 11.5582 173.034 14.8504 173.034 18.2388V104.912C173.034 113.137 173.354 118.338 173.607 119.295Z" fill="#E4E4E4"/>
    <path d="M222.27 3.50464H173.408C173.216 3.50501 173.032 3.58156 172.896 3.71753C172.76 3.8535 172.684 4.03782 172.684 4.23013V8.49894C172.683 8.66494 172.74 8.82604 172.845 8.95456C172.913 9.0386 172.999 9.10642 173.096 9.1531C173.193 9.19978 173.3 9.22414 173.408 9.22443H222.27C222.378 9.22412 222.484 9.19974 222.582 9.15307C222.679 9.10639 222.765 9.03859 222.833 8.95456C222.938 8.82602 222.995 8.66492 222.994 8.49894V4.23013C222.994 4.03784 222.917 3.85352 222.782 3.71755C222.646 3.58157 222.462 3.50501 222.27 3.50464Z" fill="#CACACA"/>
    <path d="M176.889 7.18652C177.457 7.18652 177.918 6.72525 177.918 6.15625C177.918 5.58724 177.457 5.12598 176.889 5.12598C176.321 5.12598 175.861 5.58724 175.861 6.15625C175.861 6.72525 176.321 7.18652 176.889 7.18652Z" fill="#F7EFED"/>
    <path d="M180.793 7.18652C181.361 7.18652 181.822 6.72525 181.822 6.15625C181.822 5.58724 181.361 5.12598 180.793 5.12598C180.225 5.12598 179.765 5.58724 179.765 6.15625C179.765 6.72525 180.225 7.18652 180.793 7.18652Z" fill="#F7EFED"/>
    <path d="M184.697 7.18652C185.266 7.18652 185.726 6.72525 185.726 6.15625C185.726 5.58724 185.266 5.12598 184.697 5.12598C184.129 5.12598 183.669 5.58724 183.669 6.15625C183.669 6.72525 184.129 7.18652 184.697 7.18652Z" fill="#F7EFED"/>
    <path d="M218.446 4.78052H213.95C213.862 4.7811 213.777 4.81638 213.715 4.87869C213.653 4.94101 213.618 5.02536 213.617 5.11347C213.616 5.16364 213.628 5.21327 213.652 5.25717C213.679 5.31361 213.721 5.36134 213.774 5.39483C213.826 5.42832 213.887 5.44621 213.95 5.44643H218.446C218.509 5.44674 218.57 5.4291 218.624 5.39559C218.677 5.36208 218.72 5.31407 218.747 5.25717C218.768 5.21236 218.779 5.16316 218.778 5.11347C218.778 5.06973 218.77 5.02642 218.753 4.98601C218.736 4.9456 218.712 4.90889 218.681 4.87797C218.65 4.84704 218.613 4.82252 218.573 4.8058C218.533 4.78908 218.489 4.78049 218.446 4.78052Z" fill="#F7EFED"/>
    <path d="M218.446 6.03174H213.95C213.861 6.03174 213.777 6.06682 213.715 6.12926C213.652 6.1917 213.617 6.27639 213.617 6.36469C213.617 6.453 213.652 6.53768 213.715 6.60012C213.777 6.66257 213.861 6.69764 213.95 6.69764H218.446C218.534 6.69764 218.618 6.66257 218.681 6.60012C218.743 6.53768 218.778 6.453 218.778 6.36469C218.778 6.27639 218.743 6.1917 218.681 6.12926C218.618 6.06682 218.534 6.03174 218.446 6.03174Z" fill="#F7EFED"/>
    <path d="M218.446 7.28296H213.95C213.861 7.28296 213.777 7.31804 213.715 7.38048C213.652 7.44292 213.617 7.52761 213.617 7.61591C213.617 7.70422 213.652 7.7889 213.715 7.85135C213.777 7.91379 213.861 7.94887 213.95 7.94887H218.446C218.534 7.94887 218.618 7.91379 218.681 7.85135C218.743 7.7889 218.778 7.70422 218.778 7.61591C218.778 7.52761 218.743 7.44292 218.681 7.38048C218.618 7.31804 218.534 7.28296 218.446 7.28296Z" fill="#F7EFED"/>
    <path d="M202.701 18.5823H193.45C192.986 18.5825 192.541 18.7671 192.213 19.0957C191.885 19.4243 191.7 19.87 191.7 20.3347V28.3606C191.701 28.8251 191.886 29.2704 192.213 29.5989C192.541 29.9273 192.986 30.1122 193.45 30.113H202.701C203.164 30.1116 203.608 29.9266 203.936 29.5982C204.264 29.2699 204.449 28.8249 204.45 28.3606V20.3347C204.449 19.8701 204.265 19.4249 203.937 19.0964C203.609 18.7679 203.164 18.583 202.701 18.5823Z" fill="#009694"/>
    <path d="M214.194 35.3562H181.952C181.742 35.3562 181.54 35.44 181.391 35.5892C181.242 35.7384 181.158 35.9408 181.158 36.1518C181.158 36.3628 181.242 36.5651 181.391 36.7143C181.54 36.8635 181.742 36.9474 181.952 36.9474H214.194C214.405 36.9474 214.607 36.8635 214.756 36.7143C214.905 36.5651 214.989 36.3628 214.989 36.1518C214.989 35.9408 214.905 35.7384 214.756 35.5892C214.607 35.44 214.405 35.3562 214.194 35.3562Z" fill="#E4E4E4"/>
    <path d="M194.198 39.0852H181.952C181.742 39.0852 181.54 39.169 181.391 39.3182C181.242 39.4674 181.158 39.6698 181.158 39.8808C181.158 40.0918 181.242 40.2942 181.391 40.4434C181.54 40.5926 181.742 40.6764 181.952 40.6764H194.198C194.409 40.6764 194.611 40.5926 194.76 40.4434C194.909 40.2942 194.993 40.0918 194.993 39.8808C194.993 39.6698 194.909 39.4674 194.76 39.3182C194.611 39.169 194.409 39.0852 194.198 39.0852Z" fill="#E4E4E4"/>
    <path d="M202.701 53.2795H193.45C192.986 53.2797 192.541 53.4644 192.213 53.793C191.885 54.1216 191.7 54.5672 191.7 55.0319V63.0579C191.701 63.5224 191.886 63.9677 192.213 64.2961C192.541 64.6246 192.986 64.8095 193.45 64.8102H202.701C203.164 64.8089 203.608 64.6238 203.936 64.2955C204.264 63.9671 204.449 63.5222 204.45 63.0579V55.0319C204.449 54.5674 204.265 54.1221 203.937 53.7937C203.609 53.4652 203.164 53.2803 202.701 53.2795Z" fill="#009694"/>
    <path d="M214.194 70.0532H181.952C181.742 70.0532 181.54 70.137 181.391 70.2862C181.242 70.4354 181.158 70.6378 181.158 70.8488C181.158 71.0598 181.242 71.2622 181.391 71.4114C181.54 71.5606 181.742 71.6444 181.952 71.6444H214.194C214.405 71.6444 214.607 71.5606 214.756 71.4114C214.905 71.2622 214.989 71.0598 214.989 70.8488C214.989 70.6378 214.905 70.4354 214.756 70.2862C214.607 70.137 214.405 70.0532 214.194 70.0532Z" fill="#E4E4E4"/>
    <path d="M194.198 73.7825H181.952C181.742 73.7825 181.54 73.8663 181.391 74.0155C181.242 74.1647 181.158 74.3671 181.158 74.5781C181.158 74.7891 181.242 74.9914 181.391 75.1406C181.54 75.2898 181.742 75.3736 181.952 75.3736H194.198C194.409 75.3736 194.611 75.2898 194.76 75.1406C194.909 74.9914 194.993 74.7891 194.993 74.5781C194.993 74.3671 194.909 74.1647 194.76 74.0155C194.611 73.8663 194.409 73.7825 194.198 73.7825Z" fill="#E4E4E4"/>
    <path d="M202.701 87.9768H193.45C192.986 87.977 192.541 88.1617 192.213 88.4903C191.885 88.8189 191.7 89.2645 191.7 89.7292V97.7551C191.701 98.2197 191.886 98.6649 192.213 98.9934C192.541 99.3219 192.986 99.5067 193.45 99.5075H202.701C203.164 99.5061 203.608 99.3211 203.936 98.9927C204.264 98.6644 204.449 98.2195 204.45 97.7551V89.7292C204.449 89.2647 204.265 88.8194 203.937 88.4909C203.609 88.1624 203.164 87.9776 202.701 87.9768Z" fill="#009694"/>
    <path d="M214.194 104.75H181.952C181.742 104.75 181.54 104.834 181.391 104.984C181.242 105.133 181.158 105.335 181.158 105.546C181.158 105.757 181.242 105.959 181.391 106.109C181.54 106.258 181.742 106.342 181.952 106.342H214.194C214.405 106.342 214.607 106.258 214.756 106.109C214.905 105.959 214.989 105.757 214.989 105.546C214.989 105.335 214.905 105.133 214.756 104.984C214.607 104.834 214.405 104.75 214.194 104.75Z" fill="#E4E4E4"/>
    <path d="M194.198 108.48H181.952C181.742 108.48 181.54 108.564 181.391 108.713C181.242 108.862 181.158 109.064 181.158 109.275C181.158 109.486 181.242 109.689 181.391 109.838C181.54 109.987 181.742 110.071 181.952 110.071H194.198C194.409 110.071 194.611 109.987 194.76 109.838C194.909 109.689 194.993 109.486 194.993 109.275C194.993 109.064 194.909 108.862 194.76 108.713C194.611 108.564 194.409 108.48 194.198 108.48Z" fill="#E4E4E4"/>
    <path d="M158.965 1.07583C158.964 0.883543 158.888 0.699231 158.752 0.563256C158.616 0.427281 158.432 0.35072 158.24 0.350342H28.9041C28.7121 0.350713 28.5281 0.427263 28.3923 0.563235C28.2565 0.699206 28.1801 0.883525 28.1797 1.07583V5.34464C28.1791 5.52236 28.2453 5.6938 28.3652 5.8248C28.2497 8.72324 28.1797 12.5434 28.1797 16.7281V113.078C28.1797 122.113 28.5051 129.459 28.9041 129.459H158.24C158.639 129.459 158.965 122.113 158.965 113.078V16.7281C158.965 12.5434 158.895 8.72324 158.779 5.8248C158.899 5.69378 158.965 5.52234 158.965 5.34464V1.07583Z" fill="#F7EFED"/>
    <path d="M158.24 129.81H28.9041C28.5087 129.81 28.2701 129.81 28.0427 124.672C27.9054 121.569 27.8298 117.451 27.8298 113.078V16.7283C27.8298 12.6952 27.8958 8.81806 28.0157 5.81094C28.2457 4.67937e-06 28.5076 0 28.9041 0H158.24C158.637 0 158.899 0.00103147 159.129 5.81094C159.248 8.81532 159.314 12.6925 159.314 16.7283V113.078C159.314 117.451 159.239 121.569 159.102 124.672C158.874 129.81 158.636 129.81 158.24 129.81ZM29.1083 129.109H158.036C158.322 128.01 158.615 121.84 158.615 113.078V16.7283C158.615 12.7015 158.549 8.83415 158.43 5.839C158.284 2.1578 158.114 1.0374 158.032 0.700954H29.1121C29.0308 1.03741 28.8606 2.15763 28.7148 5.83884C28.5954 8.83706 28.5296 12.7043 28.5296 16.7283V113.078C28.5296 121.84 28.822 128.01 29.1083 129.109Z" fill="#E4E4E4"/>
    <path d="M158.24 0.350342H28.9041C28.7121 0.350713 28.5281 0.427263 28.3923 0.563235C28.2565 0.699206 28.1801 0.883524 28.1797 1.07583V5.34464C28.1791 5.52236 28.2453 5.6938 28.3652 5.8248C28.4325 5.90172 28.5153 5.96339 28.6082 6.00569C28.7011 6.048 28.802 6.06997 28.9041 6.07013H158.24C158.342 6.06997 158.443 6.048 158.536 6.00569C158.629 5.96339 158.712 5.90172 158.779 5.8248C158.899 5.69378 158.965 5.52234 158.964 5.34464V1.07583C158.964 0.883547 158.888 0.699241 158.752 0.563267C158.616 0.427292 158.432 0.350727 158.24 0.350342Z" fill="#CACACA"/>
    <path d="M32.3852 4.03222C32.9533 4.03222 33.4138 3.57095 33.4138 3.00195C33.4138 2.43295 32.9533 1.97168 32.3852 1.97168C31.8172 1.97168 31.3567 2.43295 31.3567 3.00195C31.3567 3.57095 31.8172 4.03222 32.3852 4.03222Z" fill="#F7EFED"/>
    <path d="M36.2893 4.03222C36.8573 4.03222 37.3178 3.57095 37.3178 3.00195C37.3178 2.43295 36.8573 1.97168 36.2893 1.97168C35.7212 1.97168 35.2607 2.43295 35.2607 3.00195C35.2607 3.57095 35.7212 4.03222 36.2893 4.03222Z" fill="#F7EFED"/>
    <path d="M40.1936 4.03222C40.7616 4.03222 41.2221 3.57095 41.2221 3.00195C41.2221 2.43295 40.7616 1.97168 40.1936 1.97168C39.6255 1.97168 39.165 2.43295 39.165 3.00195C39.165 3.57095 39.6255 4.03222 40.1936 4.03222Z" fill="#F7EFED"/>
    <path d="M154.416 1.62622H149.92C149.832 1.62622 149.747 1.6613 149.685 1.72374C149.622 1.78618 149.587 1.87087 149.587 1.95917C149.587 2.04748 149.622 2.13217 149.685 2.19461C149.747 2.25705 149.832 2.29213 149.92 2.29213H154.416C154.504 2.29213 154.589 2.25705 154.651 2.19461C154.713 2.13217 154.748 2.04748 154.748 1.95917C154.748 1.87087 154.713 1.78618 154.651 1.72374C154.589 1.6613 154.504 1.62622 154.416 1.62622Z" fill="#F7EFED"/>
    <path d="M154.416 2.87744H149.92C149.832 2.87744 149.747 2.91252 149.685 2.97496C149.622 3.0374 149.587 3.12209 149.587 3.21039C149.587 3.2987 149.622 3.38339 149.685 3.44583C149.747 3.50827 149.832 3.54335 149.92 3.54335H154.416C154.504 3.54335 154.589 3.50827 154.651 3.44583C154.713 3.38339 154.748 3.2987 154.748 3.21039C154.748 3.12209 154.713 3.0374 154.651 2.97496C154.589 2.91252 154.504 2.87744 154.416 2.87744Z" fill="#F7EFED"/>
    <path d="M154.416 4.12866H149.92C149.832 4.12866 149.747 4.16374 149.685 4.22619C149.622 4.28863 149.587 4.37331 149.587 4.46161C149.587 4.54992 149.622 4.63461 149.685 4.69705C149.747 4.75949 149.832 4.79457 149.92 4.79457H154.416C154.504 4.79457 154.589 4.75949 154.651 4.69705C154.713 4.63461 154.748 4.54992 154.748 4.46161C154.748 4.37331 154.713 4.28863 154.651 4.22619C154.589 4.16374 154.504 4.12866 154.416 4.12866Z" fill="#F7EFED"/>
    <path d="M70.7087 21.7366H55.5724C54.8137 21.7375 54.0862 22.0399 53.5497 22.5773C53.0132 23.1148 52.7114 23.8434 52.7104 24.6035V37.7359C52.7114 38.4959 53.0132 39.2246 53.5497 39.762C54.0862 40.2995 54.8137 40.6018 55.5724 40.6028H70.7087C71.4675 40.6018 72.1949 40.2995 72.7314 39.762C73.268 39.2246 73.5698 38.4959 73.5707 37.7359V24.6035C73.5698 23.8434 73.268 23.1148 72.7314 22.5773C72.1949 22.0399 71.4675 21.7375 70.7087 21.7366Z" fill="#009694"/>
    <path d="M133.139 26.8149H80.3831C80.0383 26.8149 79.7077 26.9521 79.464 27.1963C79.2202 27.4405 79.0833 27.7716 79.0833 28.117C79.0833 28.4623 79.2202 28.7935 79.464 29.0376C79.7077 29.2818 80.0383 29.419 80.3831 29.419H133.139C133.484 29.419 133.815 29.2818 134.058 29.0376C134.302 28.7935 134.439 28.4623 134.439 28.117C134.439 27.7716 134.302 27.4405 134.058 27.1963C133.815 26.9521 133.484 26.8149 133.139 26.8149Z" fill="#E4E4E4"/>
    <path d="M100.421 32.9167H80.3831C80.0383 32.9167 79.7077 33.0539 79.464 33.2981C79.2202 33.5423 79.0833 33.8735 79.0833 34.2188C79.0833 34.5641 79.2202 34.8953 79.464 35.1394C79.7077 35.3836 80.0383 35.5208 80.3831 35.5208H100.421C100.766 35.5208 101.097 35.3836 101.34 35.1394C101.584 34.8953 101.721 34.5641 101.721 34.2188C101.721 33.8735 101.584 33.5423 101.34 33.2981C101.097 33.0539 100.766 32.9167 100.421 32.9167Z" fill="#E4E4E4"/>
    <path d="M70.7087 56.7842H55.5724C54.8137 56.7851 54.0862 57.0875 53.5497 57.6249C53.0132 58.1624 52.7114 58.891 52.7104 59.6511V72.7835C52.7114 73.5435 53.0132 74.2722 53.5497 74.8096C54.0862 75.3471 54.8137 75.6494 55.5724 75.6504H70.7087C71.4675 75.6494 72.1949 75.3471 72.7314 74.8096C73.268 74.2722 73.5698 73.5435 73.5707 72.7835V59.6511C73.5698 58.891 73.268 58.1624 72.7314 57.6249C72.1949 57.0875 71.4675 56.7851 70.7087 56.7842Z" fill="#009694"/>
    <path d="M133.139 61.8628H80.3831C80.0383 61.8628 79.7077 62 79.464 62.2441C79.2202 62.4883 79.0833 62.8195 79.0833 63.1648C79.0833 63.5101 79.2202 63.8413 79.464 64.0855C79.7077 64.3297 80.0383 64.4668 80.3831 64.4668H133.139C133.484 64.4668 133.815 64.3297 134.058 64.0855C134.302 63.8413 134.439 63.5101 134.439 63.1648C134.439 62.8195 134.302 62.4883 134.058 62.2441C133.815 62 133.484 61.8628 133.139 61.8628Z" fill="#E4E4E4"/>
    <path d="M100.421 67.9644H80.3831C80.0383 67.9644 79.7077 68.1015 79.464 68.3457C79.2202 68.5899 79.0833 68.9211 79.0833 69.2664C79.0833 69.6117 79.2202 69.9429 79.464 70.187C79.7077 70.4312 80.0383 70.5684 80.3831 70.5684H100.421C100.766 70.5684 101.097 70.4312 101.34 70.187C101.584 69.9429 101.721 69.6117 101.721 69.2664C101.721 68.9211 101.584 68.5899 101.34 68.3457C101.097 68.1015 100.766 67.9644 100.421 67.9644Z" fill="#E4E4E4"/>
    <path d="M70.7087 91.832H55.5724C54.8137 91.833 54.0862 92.1353 53.5497 92.6728C53.0132 93.2102 52.7114 93.9389 52.7104 94.6989V107.831C52.7114 108.591 53.0132 109.32 53.5497 109.857C54.0862 110.395 54.8137 110.697 55.5724 110.698H70.7087C71.4675 110.697 72.1949 110.395 72.7314 109.857C73.268 109.32 73.5698 108.591 73.5707 107.831V94.6989C73.5698 93.9389 73.268 93.2102 72.7314 92.6728C72.1949 92.1353 71.4675 91.833 70.7087 91.832Z" fill="#009694"/>
    <path d="M133.139 96.9104H80.3831C80.0383 96.9104 79.7077 97.0476 79.464 97.2918C79.2202 97.5359 79.0833 97.8671 79.0833 98.2124C79.0833 98.5577 79.2202 98.8889 79.464 99.1331C79.7077 99.3773 80.0383 99.5144 80.3831 99.5144H133.139C133.484 99.5144 133.815 99.3773 134.058 99.1331C134.302 98.8889 134.439 98.5577 134.439 98.2124C134.439 97.8671 134.302 97.5359 134.058 97.2918C133.815 97.0476 133.484 96.9104 133.139 96.9104Z" fill="#E4E4E4"/>
    <path d="M100.421 103.012H80.3831C80.0383 103.012 79.7077 103.149 79.464 103.394C79.2202 103.638 79.0833 103.969 79.0833 104.314C79.0833 104.66 79.2202 104.991 79.464 105.235C79.7077 105.479 80.0383 105.616 80.3831 105.616H100.421C100.766 105.616 101.097 105.479 101.34 105.235C101.584 104.991 101.721 104.66 101.721 104.314C101.721 103.969 101.584 103.638 101.34 103.394C101.097 103.149 100.766 103.012 100.421 103.012Z" fill="#E4E4E4"/>
    <path d="M181.334 152.591H94.6844C94.2849 152.591 93.96 146.44 93.96 138.879V58.2221C93.96 50.6609 94.2849 44.5103 94.6844 44.5103H181.334C181.733 44.5103 182.058 50.6609 182.058 58.2221V138.879C182.058 146.44 181.733 152.591 181.334 152.591Z" fill="#F7EFED"/>
    <path d="M181.334 152.941H94.6845C94.3179 152.941 94.053 152.941 93.8231 148.589C93.6857 145.99 93.6101 142.542 93.6101 138.879V58.222C93.6101 54.5593 93.6857 51.1109 93.8231 48.5122C94.053 44.1597 94.3179 44.1597 94.6845 44.1597H181.334C181.701 44.1597 181.965 44.1597 182.195 48.5122C182.333 51.1109 182.408 54.5593 182.408 58.222V138.879C182.408 142.542 182.333 145.99 182.195 148.589C181.965 152.941 181.701 152.941 181.334 152.941ZM94.8781 152.24H181.14C181.391 151.332 181.709 146.494 181.709 138.879V58.222C181.709 50.6064 181.391 45.7686 181.14 44.8606H94.8781C94.627 45.7686 94.3099 50.6063 94.3099 58.222V138.879C94.3099 146.494 94.627 151.332 94.8781 152.24Z" fill="#E4E4E4"/>
    <path d="M181.334 50.2302H94.6844C94.4923 50.23 94.3082 50.1534 94.1724 50.0174C94.0366 49.8814 93.9602 49.6969 93.96 49.5045V45.2359C93.9602 45.0435 94.0366 44.8591 94.1724 44.723C94.3082 44.587 94.4923 44.5105 94.6844 44.5103H181.334C181.526 44.5105 181.71 44.587 181.846 44.723C181.982 44.8591 182.058 45.0435 182.058 45.2359V49.5045C182.058 49.6969 181.982 49.8814 181.846 50.0174C181.71 50.1534 181.526 50.23 181.334 50.2302Z" fill="#CACACA"/>
    <path d="M98.1643 48.1924C98.7323 48.1924 99.1928 47.7311 99.1928 47.1621C99.1928 46.5931 98.7323 46.1318 98.1643 46.1318C97.5962 46.1318 97.1357 46.5931 97.1357 47.1621C97.1357 47.7311 97.5962 48.1924 98.1643 48.1924Z" fill="#F7EFED"/>
    <path d="M102.068 48.1924C102.636 48.1924 103.097 47.7311 103.097 47.1621C103.097 46.5931 102.636 46.1318 102.068 46.1318C101.5 46.1318 101.04 46.5931 101.04 47.1621C101.04 47.7311 101.5 48.1924 102.068 48.1924Z" fill="#F7EFED"/>
    <path d="M105.973 48.1924C106.541 48.1924 107.001 47.7311 107.001 47.1621C107.001 46.5931 106.541 46.1318 105.973 46.1318C105.405 46.1318 104.944 46.5931 104.944 47.1621C104.944 47.7311 105.405 48.1924 105.973 48.1924Z" fill="#F7EFED"/>
    <path d="M177.509 46.453H173.013C172.925 46.453 172.84 46.4179 172.778 46.3553C172.715 46.2928 172.68 46.2079 172.68 46.1195C172.68 46.031 172.715 45.9461 172.778 45.8836C172.84 45.821 172.925 45.7859 173.013 45.7859H177.509C177.597 45.7862 177.682 45.8214 177.744 45.884C177.806 45.9465 177.841 46.0312 177.841 46.1195C177.841 46.2077 177.806 46.2924 177.744 46.3549C177.682 46.4175 177.597 46.4527 177.509 46.453Z" fill="#F7EFED"/>
    <path d="M177.509 47.7038H173.013C172.925 47.7038 172.84 47.6686 172.778 47.6061C172.715 47.5435 172.68 47.4587 172.68 47.3702C172.68 47.2817 172.715 47.1969 172.778 47.1343C172.84 47.0718 172.925 47.0366 173.013 47.0366H177.509C177.597 47.0366 177.682 47.0718 177.744 47.1343C177.807 47.1969 177.842 47.2817 177.842 47.3702C177.842 47.4587 177.807 47.5435 177.744 47.6061C177.682 47.6686 177.597 47.7038 177.509 47.7038Z" fill="#F7EFED"/>
    <path d="M177.509 48.9547H173.013C172.925 48.9547 172.84 48.9196 172.778 48.857C172.715 48.7945 172.68 48.7096 172.68 48.6212C172.68 48.5327 172.715 48.4478 172.778 48.3853C172.84 48.3227 172.925 48.2876 173.013 48.2876H177.509C177.597 48.2879 177.682 48.3232 177.744 48.3857C177.806 48.4482 177.841 48.5329 177.841 48.6212C177.841 48.7094 177.806 48.7941 177.744 48.8567C177.682 48.9192 177.597 48.9544 177.509 48.9547Z" fill="#F7EFED"/>
    <path d="M121.311 76.7253H110.257C109.703 76.7247 109.171 76.5039 108.779 76.1113C108.388 75.7188 108.167 75.1865 108.167 74.6314V65.0412C108.167 64.4861 108.388 63.9538 108.779 63.5613C109.171 63.1687 109.703 62.9479 110.257 62.9473H121.311C121.865 62.9479 122.397 63.1687 122.788 63.5613C123.18 63.9538 123.401 64.4861 123.401 65.0412V74.6314C123.401 75.1865 123.18 75.7188 122.788 76.1113C122.397 76.5039 121.865 76.7247 121.311 76.7253Z" fill="#009694"/>
    <path d="M166.903 68.5588H128.377C128.125 68.5588 127.883 68.4586 127.705 68.2803C127.527 68.1021 127.427 67.8603 127.427 67.6081C127.427 67.356 127.527 67.1142 127.705 66.9359C127.883 66.7576 128.125 66.6575 128.377 66.6575H166.903C167.155 66.6575 167.396 66.7576 167.574 66.9359C167.752 67.1142 167.852 67.356 167.852 67.6081C167.852 67.8603 167.752 68.1021 167.574 68.2803C167.396 68.4586 167.155 68.5588 166.903 68.5588Z" fill="#E4E4E4"/>
    <path d="M143.009 73.0148H128.377C128.125 73.0148 127.883 72.9147 127.705 72.7364C127.527 72.5581 127.427 72.3163 127.427 72.0642C127.427 71.8121 127.527 71.5703 127.705 71.392C127.883 71.2137 128.125 71.1135 128.377 71.1135H143.009C143.134 71.1133 143.258 71.1377 143.373 71.1854C143.489 71.233 143.593 71.303 143.682 71.3913C143.77 71.4796 143.84 71.5845 143.888 71.7C143.936 71.8154 143.96 71.9392 143.96 72.0642C143.96 72.1892 143.936 72.3129 143.888 72.4284C143.84 72.5439 143.77 72.6487 143.682 72.737C143.593 72.8253 143.489 72.8953 143.373 72.943C143.258 72.9907 143.134 73.0151 143.009 73.0148Z" fill="#E4E4E4"/>
    <path d="M121.311 105.114H110.257C109.703 105.113 109.171 104.893 108.779 104.5C108.388 104.107 108.167 103.575 108.167 103.02V93.4299C108.167 92.8747 108.388 92.3425 108.779 91.9499C109.171 91.5574 109.703 91.3366 110.257 91.3359H121.311C121.865 91.3366 122.397 91.5574 122.788 91.9499C123.18 92.3425 123.401 92.8747 123.401 93.4299V103.02C123.401 103.575 123.18 104.107 122.788 104.5C122.397 104.893 121.865 105.113 121.311 105.114Z" fill="#009694"/>
    <path d="M166.903 96.9475H128.377C128.125 96.9475 127.883 96.8473 127.705 96.669C127.527 96.4907 127.427 96.2489 127.427 95.9968C127.427 95.7447 127.527 95.5029 127.705 95.3246C127.883 95.1463 128.125 95.0461 128.377 95.0461H166.903C167.155 95.0461 167.396 95.1463 167.574 95.3246C167.752 95.5029 167.852 95.7447 167.852 95.9968C167.852 96.2489 167.752 96.4907 167.574 96.669C167.396 96.8473 167.155 96.9475 166.903 96.9475Z" fill="#E4E4E4"/>
    <path d="M143.009 101.403H128.377C128.125 101.403 127.883 101.303 127.705 101.125C127.527 100.947 127.427 100.705 127.427 100.453C127.427 100.201 127.527 99.9589 127.705 99.7806C127.883 99.6023 128.125 99.5022 128.377 99.5022H143.009C143.134 99.502 143.258 99.5264 143.373 99.574C143.489 99.6217 143.593 99.6917 143.682 99.78C143.77 99.8683 143.84 99.9732 143.888 100.089C143.936 100.204 143.96 100.328 143.96 100.453C143.96 100.578 143.936 100.702 143.888 100.817C143.84 100.933 143.77 101.037 143.682 101.126C143.593 101.214 143.489 101.284 143.373 101.332C143.258 101.379 143.134 101.404 143.009 101.403Z" fill="#E4E4E4"/>
    <path d="M121.311 133.502H110.257C109.703 133.502 109.171 133.281 108.779 132.888C108.388 132.496 108.167 131.964 108.167 131.408V121.818C108.167 121.263 108.388 120.731 108.779 120.338C109.171 119.946 109.703 119.725 110.257 119.724H121.311C121.865 119.725 122.397 119.946 122.788 120.338C123.18 120.731 123.401 121.263 123.401 121.818V131.408C123.401 131.964 123.18 132.496 122.788 132.888C122.397 133.281 121.865 133.502 121.311 133.502Z" fill="#009694"/>
    <path d="M166.903 125.336H128.377C128.125 125.336 127.883 125.236 127.705 125.058C127.527 124.879 127.427 124.638 127.427 124.385C127.427 124.133 127.527 123.892 127.705 123.713C127.883 123.535 128.125 123.435 128.377 123.435H166.903C167.155 123.435 167.396 123.535 167.574 123.713C167.752 123.892 167.852 124.133 167.852 124.385C167.852 124.638 167.752 124.879 167.574 125.058C167.396 125.236 167.155 125.336 166.903 125.336Z" fill="#E4E4E4"/>
    <path d="M143.009 129.792H128.377C128.125 129.792 127.883 129.692 127.705 129.514C127.527 129.335 127.427 129.094 127.427 128.842C127.427 128.589 127.527 128.348 127.705 128.169C127.883 127.991 128.125 127.891 128.377 127.891H143.009C143.134 127.891 143.258 127.915 143.373 127.963C143.489 128.01 143.593 128.08 143.682 128.169C143.77 128.257 143.84 128.362 143.888 128.477C143.936 128.593 143.96 128.717 143.96 128.842C143.96 128.967 143.936 129.09 143.888 129.206C143.84 129.321 143.77 129.426 143.682 129.514C143.593 129.603 143.489 129.673 143.373 129.72C143.258 129.768 143.134 129.792 143.009 129.792Z" fill="#E4E4E4"/>
  </g>
  <defs>
    <clipPath id="clip0_426_236">
      <rect width="256" height="152.941" fill="white"/>
    </clipPath>
  </defs>
</svg>