<svg xmlns="http://www.w3.org/2000/svg" width="257" height="153" viewBox="0 0 257 153" fill="none">
  <g clip-path="url(#clip0_426_160)">
    <path d="M158.443 30.3807V147.599C158.442 148.995 157.873 150.334 156.859 151.322C155.846 152.309 154.472 152.864 153.039 152.864H104.209C103.499 152.865 102.796 152.729 102.139 152.465C101.483 152.201 100.887 151.814 100.385 151.324C99.8831 150.835 99.485 150.255 99.2137 149.615C98.9424 148.976 98.8033 148.291 98.8042 147.599V30.3807C98.8042 29.689 98.9439 29.0041 99.2155 28.3651C99.4871 27.7261 99.8852 27.1454 100.387 26.6564C100.889 26.1673 101.485 25.7793 102.14 25.5146C102.796 25.25 103.499 25.1137 104.209 25.1138H111.517V26.0276C111.517 27.1778 111.986 28.2809 112.82 29.0942C113.655 29.9075 114.787 30.3644 115.967 30.3644H140.801C141.981 30.3644 143.113 29.9075 143.947 29.0942C144.782 28.2809 145.251 27.1778 145.251 26.0276V25.1138H153.039C153.748 25.1135 154.451 25.2496 155.107 25.5142C155.763 25.7788 156.359 26.1668 156.861 26.6559C157.363 27.145 157.761 27.7257 158.032 28.3649C158.304 29.004 158.443 29.689 158.443 30.3807Z" fill="#009694"/>
    <path d="M156.305 44.7048H100.949V70.9812H156.305V44.7048Z" fill="#3D5656"/>
    <path d="M123.237 62.7474C124.686 67.9678 129.649 71.2009 129.649 71.2009C129.649 71.2009 132.263 65.9701 130.814 60.7497C129.365 55.5293 124.402 52.2961 124.402 52.2961C124.402 52.2961 121.788 57.527 123.237 62.7474Z" fill="#F7EFED"/>
    <path d="M125.367 61.6256C129.343 65.3979 129.829 71.1969 129.829 71.1969C129.829 71.1969 123.867 70.8797 119.891 67.1074C115.915 63.3351 115.429 57.5361 115.429 57.5361C115.429 57.5361 121.39 57.8533 125.367 61.6256Z" fill="#009694"/>
    <path d="M136.42 62.7474C134.971 67.9678 130.007 71.2009 130.007 71.2009C130.007 71.2009 127.393 65.9701 128.842 60.7497C130.291 55.5293 135.255 52.2961 135.255 52.2961C135.255 52.2961 137.869 57.527 136.42 62.7474Z" fill="#F7EFED"/>
    <path d="M134.29 61.6256C130.314 65.3979 129.828 71.1969 129.828 71.1969C129.828 71.1969 135.789 70.8797 139.766 67.1074C143.742 63.3351 144.228 57.5361 144.228 57.5361C144.228 57.5361 138.266 57.8533 134.29 61.6256Z" fill="#009694"/>
    <path d="M151.354 85.696H105.9V88.1277H151.354V85.696Z" fill="#EFF2F1"/>
    <path d="M151.354 89.6135H105.9V92.0452H151.354V89.6135Z" fill="#EFF2F1"/>
    <path d="M151.354 93.5312H105.9V95.9629H151.354V93.5312Z" fill="#EFF2F1"/>
    <path d="M151.354 97.449H105.9V99.8806H151.354V97.449Z" fill="#EFF2F1"/>
    <path d="M137.273 118.404L127.156 111.404L119.974 121.264L130.091 128.264L137.273 118.404Z" fill="#EFF2F1"/>
    <path d="M130 130.806C129.434 130.806 128.88 130.642 128.409 130.336C127.938 130.029 127.571 129.593 127.355 129.083C127.138 128.573 127.081 128.012 127.192 127.471C127.302 126.93 127.575 126.433 127.975 126.042C128.376 125.652 128.886 125.386 129.441 125.279C129.997 125.171 130.572 125.226 131.096 125.438C131.619 125.649 132.066 126.006 132.381 126.465C132.695 126.924 132.863 127.464 132.863 128.016C132.862 128.755 132.56 129.465 132.024 129.988C131.487 130.511 130.759 130.805 130 130.806ZM130 125.69C129.528 125.69 129.067 125.827 128.674 126.082C128.282 126.338 127.976 126.701 127.796 127.126C127.615 127.551 127.568 128.018 127.66 128.469C127.752 128.92 127.979 129.335 128.313 129.66C128.646 129.985 129.072 130.206 129.534 130.296C129.997 130.386 130.477 130.34 130.913 130.164C131.349 129.988 131.722 129.69 131.984 129.307C132.246 128.925 132.386 128.475 132.386 128.016C132.385 127.399 132.134 126.808 131.686 126.372C131.239 125.936 130.633 125.691 130 125.69Z" fill="#3D5656"/>
    <path d="M60.1388 5.26691V122.485C60.1382 123.882 59.5685 125.221 58.5551 126.208C57.5416 127.195 56.1674 127.75 54.7345 127.75H5.90436C5.1945 127.751 4.49138 127.616 3.83529 127.352C3.1792 127.087 2.58304 126.7 2.08099 126.211C1.57893 125.722 1.18085 125.141 0.909552 124.501C0.638256 123.862 0.499081 123.177 0.500005 122.485V5.26691C0.499974 4.57524 0.63974 3.89034 0.911323 3.25132C1.18291 2.61229 1.58099 2.03166 2.08283 1.54258C2.58468 1.0535 3.18046 0.665539 3.83616 0.400862C4.49186 0.136185 5.19464 -2.84158e-05 5.90436 2.78601e-07H13.2128V0.913875C13.2128 2.06406 13.6816 3.16713 14.5161 3.98043C15.3507 4.79373 16.4825 5.25064 17.6627 5.25065H42.4965C43.6767 5.25064 44.8086 4.79372 45.6431 3.98042C46.4776 3.16712 46.9465 2.06405 46.9465 0.913875V2.78601e-07H54.7345C55.4442 -0.000224736 56.1471 0.135854 56.8029 0.400461C57.4587 0.665069 58.0546 1.05302 58.5564 1.54214C59.0583 2.03126 59.4564 2.61197 59.7279 3.25109C59.9994 3.8902 60.1391 4.57519 60.1388 5.26691Z" fill="#F7EFED"/>
    <path d="M53.9447 64.0053H6.22412V22.3816H53.9447V64.0053ZM6.70132 63.5402H53.4675V22.8467H6.70132V63.5402Z" fill="#3D5656"/>
    <path d="M6.62178 22.4408L6.30371 22.7876L53.5471 63.9462L53.8652 63.5994L6.62178 22.4408Z" fill="#3D5656"/>
    <path d="M53.5473 22.4413L6.30322 63.5991L6.62128 63.9459L53.8654 22.788L53.5473 22.4413Z" fill="#3D5656"/>
    <path d="M53.7063 76.0972H6.46289V76.5622H53.7063V76.0972Z" fill="#3D5656"/>
    <path d="M53.7063 80.2827H6.46289V80.7478H53.7063V80.2827Z" fill="#3D5656"/>
    <path d="M53.7063 84.4683H6.46289V84.9333H53.7063V84.4683Z" fill="#3D5656"/>
    <path d="M30.0846 88.6541H6.46289V89.1191H30.0846V88.6541Z" fill="#3D5656"/>
    <path d="M30.0846 92.8396H6.46289V93.3047H30.0846V92.8396Z" fill="#3D5656"/>
    <path d="M256.509 5.26691V122.485C256.508 123.882 255.939 125.221 254.925 126.208C253.912 127.195 252.537 127.75 251.105 127.75H202.274C201.565 127.751 200.861 127.616 200.205 127.352C199.549 127.087 198.953 126.7 198.451 126.211C197.949 125.722 197.551 125.141 197.28 124.501C197.008 123.862 196.869 123.177 196.87 122.485V5.26691C196.87 4.57524 197.01 3.89034 197.281 3.25132C197.553 2.6123 197.951 2.03167 198.453 1.54258C198.955 1.0535 199.551 0.665542 200.206 0.400865C200.862 0.136187 201.565 -2.76383e-05 202.274 2.80522e-07H209.583V0.913875C209.583 2.06406 210.052 3.16713 210.886 3.98043C211.721 4.79373 212.853 5.25064 214.033 5.25065H238.867C240.047 5.25064 241.179 4.79372 242.013 3.98042C242.848 3.16712 243.317 2.06405 243.317 0.913875V2.80522e-07H251.105C251.814 -0.00022551 252.517 0.135854 253.173 0.400461C253.829 0.665068 254.425 1.05302 254.927 1.54214C255.428 2.03126 255.827 2.61197 256.098 3.25108C256.37 3.8902 256.509 4.57519 256.509 5.26691Z" fill="#F7EFED"/>
    <path d="M250.553 60.0522H203.31V60.5173H250.553V60.0522Z" fill="#3D5656"/>
    <path d="M250.553 72.144H203.31V72.6091H250.553V72.144Z" fill="#3D5656"/>
    <path d="M250.553 84.2358H203.31V84.7009H250.553V84.2358Z" fill="#3D5656"/>
    <path d="M225.671 42.398C229.955 42.398 233.428 39.0137 233.428 34.8389C233.428 30.6641 229.955 27.2798 225.671 27.2798C221.388 27.2798 217.915 30.6641 217.915 34.8389C217.915 39.0137 221.388 42.398 225.671 42.398Z" fill="#009694"/>
    <path d="M241.964 57.9595H238.624V65.4006H241.964V57.9595Z" fill="#009694"/>
    <path d="M212.616 69.8186H209.275V77.2597H212.616V69.8186Z" fill="#009694"/>
    <path d="M232.181 81.678H228.841V89.1191H232.181V81.678Z" fill="#009694"/>
    <path d="M226.69 43.3098C224.802 43.3098 222.957 42.7643 221.387 41.7422C219.818 40.7202 218.594 39.2675 217.872 37.5679C217.15 35.8683 216.961 33.9981 217.329 32.1938C217.697 30.3895 218.606 28.7322 219.941 27.4313C221.276 26.1305 222.976 25.2447 224.828 24.8858C226.679 24.5269 228.598 24.7111 230.342 25.4151C232.086 26.1191 233.577 27.3113 234.625 28.8409C235.674 30.3705 236.234 32.1688 236.234 34.0084C236.231 36.4744 235.224 38.8387 233.435 40.5824C231.646 42.3261 229.22 43.307 226.69 43.3098ZM226.69 25.1721C224.896 25.1721 223.143 25.6903 221.652 26.6613C220.161 27.6322 218.999 29.0123 218.313 30.6269C217.627 32.2415 217.447 34.0182 217.797 35.7323C218.147 37.4464 219.01 39.0208 220.278 40.2566C221.546 41.4924 223.162 42.334 224.921 42.6749C226.68 43.0159 228.503 42.8409 230.159 42.1721C231.816 41.5033 233.232 40.3707 234.228 38.9176C235.225 37.4645 235.757 35.7561 235.757 34.0084C235.754 31.6657 234.798 29.4197 233.098 27.7631C231.398 26.1066 229.093 25.1747 226.69 25.1721Z" fill="#3D5656"/>
    <path d="M66.5854 61.492L66.1182 61.8679L85.2642 84.466L85.7314 84.0901L66.5854 61.492Z" fill="#3D5656"/>
    <path d="M87.8262 87.0262C86.2383 86.1292 84.039 85.2008 82.3066 84.9222L85.1924 83.9174L86.7504 81.3464C86.7032 83.0569 87.2225 85.3373 87.8262 87.0262Z" fill="#3D5656"/>
    <path d="M190.189 61.4899L171.048 84.0923L171.516 84.4683L190.657 61.8659L190.189 61.4899Z" fill="#3D5656"/>
    <path d="M168.951 87.0263C169.554 85.337 170.074 83.0567 170.027 81.3462L171.585 83.9176L174.47 84.922C172.738 85.2005 170.539 86.129 168.951 87.0263Z" fill="#3D5656"/>
  </g>
  <defs>
    <clipPath id="clip0_426_160">
      <rect width="256" height="152.941" fill="white" transform="translate(0.5)"/>
    </clipPath>
  </defs>
</svg>